# MagicaVoxel @ ephtracy

# material
mtllib CabinBase.mtl
usemtl palette

# normals
vn -1 0 0
vn 1 0 0
vn 0 0 1
vn 0 0 -1
vn 0 -1 0
vn 0 1 0

# texcoords
vt 0.0644531 0.5
vt 0.0917969 0.5
vt 0.115234 0.5

# verts
v -22 0 32
v -22 0 30
v -22 0 18
v -22 0 -20
v -22 1 18
v -22 1 -20
v -22 2 18
v -22 2 -20
v -22 5 30
v -22 5 18
v -22 6 30
v -22 6 18
v -22 15 30
v -22 15 18
v -22 17 32
v -22 17 18
v -22 17 -20
v -18 4 19
v -18 4 18
v -18 5 19
v -18 5 18
v -12 0 32
v -12 0 30
v -12 5 32
v -12 5 31
v -12 6 32
v -12 6 31
v -12 15 32
v -12 15 30
v -10 5 18
v -10 5 17
v -10 9 18
v -10 9 17
v -5 7 22
v -5 7 21
v -5 8 22
v -5 8 21
v -4 1 23
v -4 1 18
v -4 2 18
v -4 7 22
v -4 7 21
v -4 8 22
v -4 8 21
v -4 13 23
v -4 13 18
v 3 1 18
v 3 1 17
v 3 13 18
v 3 13 17
v 9 4 19
v 9 4 18
v 9 5 19
v 9 5 18
v 10 0 32
v 10 0 30
v 10 17 32
v 10 17 30
v 17 5 18
v 17 5 17
v 17 9 18
v 17 9 17
v 20 0 32
v 20 0 30
v 20 5 32
v 20 5 31
v 20 6 32
v 20 6 31
v 20 15 32
v 20 15 30
v 20 15 18
v 20 17 30
v 20 17 18
v 21 1 17
v 21 1 -19
v 21 2 17
v 21 2 -19
v 21 5 30
v 21 5 18
v 21 6 30
v 21 6 18
v 21 17 17
v 21 17 -19
v -21 1 17
v -21 1 -19
v -21 2 17
v -21 2 -19
v -21 5 30
v -21 5 18
v -21 6 30
v -21 6 18
v -21 17 17
v -21 17 -19
v -20 0 32
v -20 0 30
v -20 5 32
v -20 5 31
v -20 6 32
v -20 6 31
v -20 15 32
v -20 15 30
v -20 15 18
v -20 17 30
v -20 17 18
v -17 5 18
v -17 5 17
v -17 9 18
v -17 9 17
v -10 0 32
v -10 0 30
v -10 17 32
v -10 17 30
v -9 4 19
v -9 4 18
v -9 5 19
v -9 5 18
v -3 1 23
v -3 1 18
v -3 1 17
v -3 13 23
v -3 13 18
v -3 13 17
v 10 5 18
v 10 5 17
v 10 9 18
v 10 9 17
v 12 0 32
v 12 0 30
v 12 5 32
v 12 5 31
v 12 6 32
v 12 6 31
v 12 15 32
v 12 15 30
v 18 4 19
v 18 4 18
v 18 5 19
v 18 5 18
v 22 0 32
v 22 0 30
v 22 0 18
v 22 0 -20
v 22 1 18
v 22 1 -20
v 22 2 18
v 22 2 -20
v 22 5 30
v 22 5 18
v 22 6 30
v 22 6 18
v 22 15 30
v 22 15 18
v 22 17 32
v 22 17 18
v 22 17 -20
v -22 0 32
v -22 17 32
v -20 0 32
v -20 5 32
v -20 6 32
v -20 15 32
v -12 0 32
v -12 5 32
v -12 6 32
v -12 15 32
v -10 0 32
v -10 17 32
v 10 0 32
v 10 17 32
v 12 0 32
v 12 5 32
v 12 6 32
v 12 15 32
v 20 0 32
v 20 5 32
v 20 6 32
v 20 15 32
v 22 0 32
v 22 17 32
v -4 1 23
v -4 13 23
v -3 1 23
v -3 13 23
v -5 7 22
v -5 8 22
v -4 7 22
v -4 8 22
v -18 4 19
v -18 5 19
v -9 4 19
v -9 5 19
v 9 4 19
v 9 5 19
v 18 4 19
v 18 5 19
v -22 0 18
v -22 1 18
v -22 2 18
v -22 5 18
v -22 6 18
v -22 15 18
v -21 5 18
v -21 6 18
v -20 15 18
v -20 17 18
v -18 4 18
v -18 5 18
v -18 10 18
v -17 5 18
v -17 9 18
v -10 5 18
v -10 9 18
v -9 4 18
v -9 5 18
v -9 10 18
v -4 1 18
v -4 2 18
v -4 13 18
v -4 14 18
v -3 1 18
v -3 13 18
v 3 1 18
v 3 13 18
v 4 2 18
v 4 14 18
v 9 4 18
v 9 5 18
v 9 10 18
v 10 5 18
v 10 9 18
v 17 5 18
v 17 9 18
v 18 4 18
v 18 5 18
v 18 10 18
v 20 15 18
v 20 17 18
v 21 5 18
v 21 6 18
v 22 0 18
v 22 1 18
v 22 2 18
v 22 5 18
v 22 6 18
v 22 15 18
v -21 1 -19
v -21 2 -19
v -21 17 -19
v 21 1 -19
v 21 2 -19
v 21 17 -19
v -20 5 31
v -20 6 31
v -12 5 31
v -12 6 31
v 12 5 31
v 12 6 31
v 20 5 31
v 20 6 31
v -22 0 30
v -22 5 30
v -22 6 30
v -22 15 30
v -21 5 30
v -21 6 30
v -20 0 30
v -20 15 30
v -20 17 30
v -12 0 30
v -12 15 30
v -10 0 30
v -10 17 30
v 10 0 30
v 10 17 30
v 12 0 30
v 12 15 30
v 20 0 30
v 20 15 30
v 20 17 30
v 21 5 30
v 21 6 30
v 22 0 30
v 22 5 30
v 22 6 30
v 22 15 30
v -5 7 21
v -5 8 21
v -4 7 21
v -4 8 21
v -21 1 17
v -21 2 17
v -21 17 17
v -18 4 17
v -18 10 17
v -17 5 17
v -17 9 17
v -10 5 17
v -10 9 17
v -9 4 17
v -9 10 17
v -4 2 17
v -4 14 17
v -3 1 17
v -3 13 17
v 3 1 17
v 3 13 17
v 4 2 17
v 4 14 17
v 9 4 17
v 9 10 17
v 10 5 17
v 10 9 17
v 17 5 17
v 17 9 17
v 18 4 17
v 18 10 17
v 21 1 17
v 21 2 17
v 21 17 17
v -22 0 -20
v -22 1 -20
v -22 2 -20
v -22 17 -20
v 22 0 -20
v 22 1 -20
v 22 2 -20
v 22 17 -20
v -22 0 32
v -20 0 32
v -12 0 32
v -10 0 32
v 10 0 32
v 12 0 32
v 20 0 32
v 22 0 32
v -22 0 30
v -20 0 30
v -12 0 30
v -10 0 30
v 10 0 30
v 12 0 30
v 20 0 30
v 22 0 30
v -22 0 18
v 22 0 18
v -22 0 -20
v 22 0 -20
v -4 1 23
v -3 1 23
v -4 1 18
v -3 1 18
v -18 4 19
v -9 4 19
v 9 4 19
v 18 4 19
v -18 4 18
v -9 4 18
v 9 4 18
v 18 4 18
v -20 5 32
v -12 5 32
v 12 5 32
v 20 5 32
v -20 5 31
v -12 5 31
v 12 5 31
v 20 5 31
v -22 5 30
v -21 5 30
v 21 5 30
v 22 5 30
v -22 5 18
v -21 5 18
v 21 5 18
v 22 5 18
v -5 7 22
v -4 7 22
v -5 7 21
v -4 7 21
v -17 9 18
v -10 9 18
v 10 9 18
v 17 9 18
v -17 9 17
v -10 9 17
v 10 9 17
v 17 9 17
v -3 13 18
v 3 13 18
v -3 13 17
v 3 13 17
v -20 15 32
v -12 15 32
v 12 15 32
v 20 15 32
v -22 15 30
v -20 15 30
v -12 15 30
v 12 15 30
v 20 15 30
v 22 15 30
v -22 15 18
v -20 15 18
v 20 15 18
v 22 15 18
v -3 1 18
v 3 1 18
v -21 1 17
v -3 1 17
v 3 1 17
v 21 1 17
v -21 1 -19
v 21 1 -19
v -18 5 19
v -9 5 19
v 9 5 19
v 18 5 19
v -18 5 18
v -17 5 18
v -10 5 18
v -9 5 18
v 9 5 18
v 10 5 18
v 17 5 18
v 18 5 18
v -17 5 17
v -10 5 17
v 10 5 17
v 17 5 17
v -20 6 32
v -12 6 32
v 12 6 32
v 20 6 32
v -20 6 31
v -12 6 31
v 12 6 31
v 20 6 31
v -22 6 30
v -21 6 30
v 21 6 30
v 22 6 30
v -22 6 18
v -21 6 18
v 21 6 18
v 22 6 18
v -5 8 22
v -4 8 22
v -5 8 21
v -4 8 21
v -4 13 23
v -3 13 23
v -4 13 18
v -3 13 18
v -22 17 32
v -10 17 32
v 10 17 32
v 22 17 32
v -20 17 30
v -10 17 30
v 10 17 30
v 20 17 30
v -22 17 18
v -20 17 18
v 20 17 18
v 22 17 18
v -21 17 17
v 21 17 17
v -21 17 -19
v 21 17 -19
v -22 17 -20
v 22 17 -20

# faces
f 5/1/1 4/1/1 3/1/1
f 6/1/1 4/1/1 5/1/1
f 7/2/1 6/2/1 5/2/1
f 8/2/1 6/2/1 7/2/1
f 9/2/1 2/2/1 1/2/1
f 10/1/1 8/1/1 7/1/1
f 11/2/1 9/2/1 1/2/1
f 11/2/1 10/2/1 9/2/1
f 12/1/1 8/1/1 10/1/1
f 12/2/1 10/2/1 11/2/1
f 13/2/1 11/2/1 1/2/1
f 14/1/1 8/1/1 12/1/1
f 15/2/1 13/2/1 1/2/1
f 15/2/1 14/2/1 13/2/1
f 16/1/1 8/1/1 14/1/1
f 16/2/1 14/2/1 15/2/1
f 17/1/1 8/1/1 16/1/1
f 20/2/1 19/2/1 18/2/1
f 21/2/1 19/2/1 20/2/1
f 24/2/1 23/2/1 22/2/1
f 25/2/1 23/2/1 24/2/1
f 27/2/1 23/2/1 25/2/1
f 28/2/1 27/2/1 26/2/1
f 29/2/1 23/2/1 27/2/1
f 29/2/1 27/2/1 28/2/1
f 32/2/1 31/2/1 30/2/1
f 33/2/1 31/2/1 32/2/1
f 36/3/1 35/3/1 34/3/1
f 37/3/1 35/3/1 36/3/1
f 40/2/1 39/2/1 38/2/1
f 41/2/1 40/2/1 38/2/1
f 42/2/1 40/2/1 41/2/1
f 43/2/1 41/2/1 38/2/1
f 44/2/1 40/2/1 42/2/1
f 45/2/1 43/2/1 38/2/1
f 45/2/1 44/2/1 43/2/1
f 46/2/1 40/2/1 44/2/1
f 46/2/1 44/2/1 45/2/1
f 49/2/1 48/2/1 47/2/1
f 50/2/1 48/2/1 49/2/1
f 53/2/1 52/2/1 51/2/1
f 54/2/1 52/2/1 53/2/1
f 57/2/1 56/2/1 55/2/1
f 58/2/1 56/2/1 57/2/1
f 61/2/1 60/2/1 59/2/1
f 62/2/1 60/2/1 61/2/1
f 65/2/1 64/2/1 63/2/1
f 66/2/1 64/2/1 65/2/1
f 68/2/1 64/2/1 66/2/1
f 69/2/1 68/2/1 67/2/1
f 70/2/1 64/2/1 68/2/1
f 70/2/1 68/2/1 69/2/1
f 72/2/1 71/2/1 70/2/1
f 73/2/1 71/2/1 72/2/1
f 76/2/1 75/2/1 74/2/1
f 77/2/1 75/2/1 76/2/1
f 80/2/1 79/2/1 78/2/1
f 81/2/1 79/2/1 80/2/1
f 82/1/1 77/1/1 76/1/1
f 83/1/1 77/1/1 82/1/1
f 84/2/2 85/2/2 86/2/2
f 86/2/2 85/2/2 87/2/2
f 88/2/2 89/2/2 90/2/2
f 90/2/2 89/2/2 91/2/2
f 86/1/2 87/1/2 92/1/2
f 92/1/2 87/1/2 93/1/2
f 94/2/2 95/2/2 96/2/2
f 96/2/2 95/2/2 97/2/2
f 97/2/2 95/2/2 99/2/2
f 98/2/2 99/2/2 100/2/2
f 99/2/2 95/2/2 101/2/2
f 100/2/2 99/2/2 101/2/2
f 101/2/2 102/2/2 103/2/2
f 103/2/2 102/2/2 104/2/2
f 105/2/2 106/2/2 107/2/2
f 107/2/2 106/2/2 108/2/2
f 109/2/2 110/2/2 111/2/2
f 111/2/2 110/2/2 112/2/2
f 113/2/2 114/2/2 115/2/2
f 115/2/2 114/2/2 116/2/2
f 117/2/2 118/2/2 120/2/2
f 118/2/2 119/2/2 120/2/2
f 120/2/2 119/2/2 121/2/2
f 121/2/2 119/2/2 122/2/2
f 123/2/2 124/2/2 125/2/2
f 125/2/2 124/2/2 126/2/2
f 127/2/2 128/2/2 129/2/2
f 129/2/2 128/2/2 130/2/2
f 130/2/2 128/2/2 132/2/2
f 131/2/2 132/2/2 133/2/2
f 132/2/2 128/2/2 134/2/2
f 133/2/2 132/2/2 134/2/2
f 135/2/2 136/2/2 137/2/2
f 137/2/2 136/2/2 138/2/2
f 141/1/2 142/1/2 143/1/2
f 143/1/2 142/1/2 144/1/2
f 143/2/2 144/2/2 145/2/2
f 145/2/2 144/2/2 146/2/2
f 139/2/2 140/2/2 147/2/2
f 145/1/2 146/1/2 148/1/2
f 139/2/2 147/2/2 149/2/2
f 147/2/2 148/2/2 149/2/2
f 148/1/2 146/1/2 150/1/2
f 149/2/2 148/2/2 150/2/2
f 139/2/2 149/2/2 151/2/2
f 150/1/2 146/1/2 152/1/2
f 139/2/2 151/2/2 153/2/2
f 151/2/2 152/2/2 153/2/2
f 152/1/2 146/1/2 154/1/2
f 153/2/2 152/2/2 154/2/2
f 154/1/2 146/1/2 155/1/2
f 158/2/3 157/2/3 156/2/3
f 159/2/3 157/2/3 158/2/3
f 160/2/3 157/2/3 159/2/3
f 161/2/3 157/2/3 160/2/3
f 163/2/3 160/2/3 159/2/3
f 164/2/3 160/2/3 163/2/3
f 165/2/3 157/2/3 161/2/3
f 166/2/3 164/2/3 163/2/3
f 166/2/3 165/2/3 164/2/3
f 166/2/3 163/2/3 162/2/3
f 167/2/3 157/2/3 165/2/3
f 167/2/3 165/2/3 166/2/3
f 170/2/3 169/2/3 168/2/3
f 171/2/3 169/2/3 170/2/3
f 172/2/3 169/2/3 171/2/3
f 173/2/3 169/2/3 172/2/3
f 175/2/3 172/2/3 171/2/3
f 176/2/3 172/2/3 175/2/3
f 177/2/3 169/2/3 173/2/3
f 178/2/3 176/2/3 175/2/3
f 178/2/3 177/2/3 176/2/3
f 178/2/3 175/2/3 174/2/3
f 179/2/3 169/2/3 177/2/3
f 179/2/3 177/2/3 178/2/3
f 182/2/3 181/2/3 180/2/3
f 183/2/3 181/2/3 182/2/3
f 186/3/3 185/3/3 184/3/3
f 187/3/3 185/3/3 186/3/3
f 190/2/3 189/2/3 188/2/3
f 191/2/3 189/2/3 190/2/3
f 194/2/3 193/2/3 192/2/3
f 195/2/3 193/2/3 194/2/3
f 202/1/3 199/1/3 198/1/3
f 203/1/3 201/1/3 200/1/3
f 204/1/3 201/1/3 203/1/3
f 204/1/3 203/1/3 202/1/3
f 206/1/3 202/1/3 198/1/3
f 206/1/3 205/1/3 204/1/3
f 206/1/3 204/1/3 202/1/3
f 207/1/3 205/1/3 206/1/3
f 208/1/3 205/1/3 207/1/3
f 209/2/3 208/2/3 207/2/3
f 210/2/3 208/2/3 209/2/3
f 212/2/3 208/2/3 210/2/3
f 213/1/3 206/1/3 198/1/3
f 214/2/3 212/2/3 211/2/3
f 215/1/3 205/1/3 208/1/3
f 215/2/3 208/2/3 212/2/3
f 215/2/3 212/2/3 214/2/3
f 216/1/3 197/1/3 196/1/3
f 216/2/3 198/2/3 197/2/3
f 217/1/3 215/1/3 214/1/3
f 217/2/3 198/2/3 216/2/3
f 217/1/3 213/1/3 198/1/3
f 217/1/3 214/1/3 213/1/3
f 218/1/3 205/1/3 215/1/3
f 218/1/3 215/1/3 217/1/3
f 219/1/3 205/1/3 218/1/3
f 220/1/3 216/1/3 196/1/3
f 221/2/3 219/2/3 218/2/3
f 222/1/3 220/1/3 196/1/3
f 223/2/3 219/2/3 221/2/3
f 224/2/3 223/2/3 222/2/3
f 225/1/3 205/1/3 219/1/3
f 225/2/3 223/2/3 224/2/3
f 225/2/3 219/2/3 223/2/3
f 226/1/3 225/1/3 224/1/3
f 227/1/3 225/1/3 226/1/3
f 228/1/3 225/1/3 227/1/3
f 229/2/3 228/2/3 227/2/3
f 230/2/3 228/2/3 229/2/3
f 232/2/3 228/2/3 230/2/3
f 233/1/3 226/1/3 224/1/3
f 234/2/3 232/2/3 231/2/3
f 235/1/3 225/1/3 228/1/3
f 235/2/3 228/2/3 232/2/3
f 235/2/3 232/2/3 234/2/3
f 236/1/3 205/1/3 225/1/3
f 236/1/3 225/1/3 235/1/3
f 236/1/3 235/1/3 234/1/3
f 236/1/3 234/1/3 233/1/3
f 237/1/3 205/1/3 236/1/3
f 238/1/3 236/1/3 233/1/3
f 239/1/3 236/1/3 238/1/3
f 240/1/3 222/1/3 196/1/3
f 241/2/3 224/2/3 222/2/3
f 241/1/3 222/1/3 240/1/3
f 242/1/3 233/1/3 224/1/3
f 242/2/3 224/2/3 241/2/3
f 242/1/3 238/1/3 233/1/3
f 243/1/3 238/1/3 242/1/3
f 244/1/3 236/1/3 239/1/3
f 245/1/3 236/1/3 244/1/3
f 249/2/3 247/2/3 246/2/3
f 250/1/3 248/1/3 247/1/3
f 250/2/3 247/2/3 249/2/3
f 251/1/3 248/1/3 250/1/3
f 252/2/4 253/2/4 254/2/4
f 254/2/4 253/2/4 255/2/4
f 256/2/4 257/2/4 258/2/4
f 258/2/4 257/2/4 259/2/4
f 260/2/4 261/2/4 264/2/4
f 262/2/4 263/2/4 265/2/4
f 260/2/4 264/2/4 266/2/4
f 264/2/4 265/2/4 266/2/4
f 265/2/4 263/2/4 267/2/4
f 266/2/4 265/2/4 267/2/4
f 267/2/4 268/2/4 270/2/4
f 269/2/4 270/2/4 271/2/4
f 270/2/4 268/2/4 272/2/4
f 271/2/4 270/2/4 272/2/4
f 273/2/4 274/2/4 275/2/4
f 275/2/4 274/2/4 276/2/4
f 276/2/4 274/2/4 278/2/4
f 278/2/4 274/2/4 279/2/4
f 277/2/4 278/2/4 280/2/4
f 280/2/4 278/2/4 281/2/4
f 277/2/4 280/2/4 282/2/4
f 282/2/4 280/2/4 283/2/4
f 281/2/4 278/2/4 284/2/4
f 284/2/4 278/2/4 285/2/4
f 286/3/4 287/3/4 288/3/4
f 288/3/4 287/3/4 289/3/4
f 291/1/4 292/1/4 293/1/4
f 293/1/4 292/1/4 294/1/4
f 293/2/4 294/2/4 295/2/4
f 295/2/4 294/2/4 296/2/4
f 293/2/4 295/2/4 297/2/4
f 296/2/4 294/2/4 298/2/4
f 291/1/4 293/1/4 299/1/4
f 297/2/4 298/2/4 299/2/4
f 293/2/4 297/2/4 299/2/4
f 298/2/4 294/2/4 300/2/4
f 299/2/4 298/2/4 300/2/4
f 294/1/4 292/1/4 300/1/4
f 290/2/4 291/2/4 301/2/4
f 291/1/4 299/1/4 301/1/4
f 299/1/4 300/1/4 301/1/4
f 300/1/4 292/1/4 302/1/4
f 301/1/4 300/1/4 302/1/4
f 290/2/4 301/2/4 303/2/4
f 301/2/4 302/2/4 303/2/4
f 303/2/4 302/2/4 304/2/4
f 304/2/4 302/2/4 306/2/4
f 305/2/4 306/2/4 307/2/4
f 302/1/4 292/1/4 308/1/4
f 307/2/4 306/2/4 308/2/4
f 306/2/4 302/2/4 308/2/4
f 307/1/4 308/1/4 309/1/4
f 309/1/4 308/1/4 310/1/4
f 309/2/4 310/2/4 311/2/4
f 311/2/4 310/2/4 312/2/4
f 309/2/4 311/2/4 313/2/4
f 312/2/4 310/2/4 314/2/4
f 307/1/4 309/1/4 315/1/4
f 313/2/4 314/2/4 315/2/4
f 309/2/4 313/2/4 315/2/4
f 314/2/4 310/2/4 316/2/4
f 315/2/4 314/2/4 316/2/4
f 310/1/4 308/1/4 316/1/4
f 305/2/4 307/2/4 317/2/4
f 307/1/4 315/1/4 318/1/4
f 317/2/4 307/2/4 318/2/4
f 315/1/4 316/1/4 318/1/4
f 316/1/4 308/1/4 319/1/4
f 318/1/4 316/1/4 319/1/4
f 308/1/4 292/1/4 319/1/4
f 320/1/4 321/1/4 324/1/4
f 321/2/4 322/2/4 325/2/4
f 324/1/4 321/1/4 325/1/4
f 322/1/4 323/1/4 326/1/4
f 325/2/4 322/2/4 326/2/4
f 326/1/4 323/1/4 327/1/4
f 336/2/5 329/2/5 328/2/5
f 337/2/5 329/2/5 336/2/5
f 338/2/5 331/2/5 330/2/5
f 339/2/5 331/2/5 338/2/5
f 340/2/5 333/2/5 332/2/5
f 341/2/5 333/2/5 340/2/5
f 342/2/5 335/2/5 334/2/5
f 343/2/5 335/2/5 342/2/5
f 346/1/5 345/1/5 344/1/5
f 347/1/5 345/1/5 346/1/5
f 350/2/5 349/2/5 348/2/5
f 351/2/5 349/2/5 350/2/5
f 356/2/5 353/2/5 352/2/5
f 357/2/5 353/2/5 356/2/5
f 358/2/5 355/2/5 354/2/5
f 359/2/5 355/2/5 358/2/5
f 364/2/5 361/2/5 360/2/5
f 365/2/5 361/2/5 364/2/5
f 366/2/5 363/2/5 362/2/5
f 367/2/5 363/2/5 366/2/5
f 372/2/5 369/2/5 368/2/5
f 373/2/5 369/2/5 372/2/5
f 374/2/5 371/2/5 370/2/5
f 375/2/5 371/2/5 374/2/5
f 378/3/5 377/3/5 376/3/5
f 379/3/5 377/3/5 378/3/5
f 384/2/5 381/2/5 380/2/5
f 385/2/5 381/2/5 384/2/5
f 386/2/5 383/2/5 382/2/5
f 387/2/5 383/2/5 386/2/5
f 390/2/5 389/2/5 388/2/5
f 391/2/5 389/2/5 390/2/5
f 397/2/5 393/2/5 392/2/5
f 398/2/5 393/2/5 397/2/5
f 399/2/5 395/2/5 394/2/5
f 400/2/5 395/2/5 399/2/5
f 402/2/5 397/2/5 396/2/5
f 403/2/5 397/2/5 402/2/5
f 404/2/5 401/2/5 400/2/5
f 405/2/5 401/2/5 404/2/5
f 406/1/6 407/1/6 409/1/6
f 409/1/6 407/1/6 410/1/6
f 408/1/6 409/1/6 412/1/6
f 410/1/6 411/1/6 412/1/6
f 409/1/6 410/1/6 412/1/6
f 412/1/6 411/1/6 413/1/6
f 414/2/6 415/2/6 418/2/6
f 418/2/6 415/2/6 419/2/6
f 419/2/6 415/2/6 420/2/6
f 420/2/6 415/2/6 421/2/6
f 416/2/6 417/2/6 422/2/6
f 422/2/6 417/2/6 423/2/6
f 423/2/6 417/2/6 424/2/6
f 424/2/6 417/2/6 425/2/6
f 419/2/6 420/2/6 426/2/6
f 426/2/6 420/2/6 427/2/6
f 423/2/6 424/2/6 428/2/6
f 428/2/6 424/2/6 429/2/6
f 430/2/6 431/2/6 434/2/6
f 434/2/6 431/2/6 435/2/6
f 432/2/6 433/2/6 436/2/6
f 436/2/6 433/2/6 437/2/6
f 438/2/6 439/2/6 442/2/6
f 442/2/6 439/2/6 443/2/6
f 440/2/6 441/2/6 444/2/6
f 444/2/6 441/2/6 445/2/6
f 446/3/6 447/3/6 448/3/6
f 448/3/6 447/3/6 449/3/6
f 450/2/6 451/2/6 452/2/6
f 452/2/6 451/2/6 453/2/6
f 454/2/6 455/2/6 458/2/6
f 458/2/6 455/2/6 459/2/6
f 456/2/6 457/2/6 460/2/6
f 460/2/6 457/2/6 461/2/6
f 454/2/6 458/2/6 462/2/6
f 462/2/6 458/2/6 463/2/6
f 461/2/6 457/2/6 464/2/6
f 464/2/6 457/2/6 465/2/6
f 462/1/6 463/1/6 466/1/6
f 463/1/6 464/1/6 466/1/6
f 464/1/6 465/1/6 466/1/6
f 466/1/6 465/1/6 467/1/6
f 462/1/6 466/1/6 468/1/6
f 467/1/6 465/1/6 469/1/6
f 462/1/6 468/1/6 470/1/6
f 468/1/6 469/1/6 470/1/6
f 469/1/6 465/1/6 471/1/6
f 470/1/6 469/1/6 471/1/6
