# MagicaVoxel @ ephtracy

# material
mtllib Tree.mtl
usemtl palette

# normals
vn -1 0 0
vn 1 0 0
vn 0 0 1
vn 0 0 -1
vn 0 -1 0
vn 0 1 0

# texcoords
vt 0.873047 0.5
vt 0.896484 0.5

# verts
v -6 9 3
v -6 9 -7
v -6 10 7
v -6 10 3
v -6 13 7
v -6 13 6
v -6 14 6
v -6 14 5
v -6 14 -0
v -6 14 -7
v -6 15 5
v -6 15 -0
v -5 13 7
v -5 13 6
v -5 14 6
v -5 14 5
v -5 15 7
v -5 15 5
v -4 14 -0
v -4 14 -7
v -4 15 -0
v -4 15 -7
v -2 9 7
v -2 9 3
v -2 10 7
v -2 10 3
v -1 0 1
v -1 0 -1
v -1 9 1
v -1 9 -1
v -1 9 -6
v -1 9 -7
v -1 12 -6
v -1 12 -7
v 0 5 -1
v 0 5 -2
v 0 6 -1
v 0 6 -2
v 0 14 2
v 0 14 -0
v 0 15 2
v 0 15 -0
v -4 9 -6
v -4 9 -7
v -4 12 -6
v -4 12 -7
v -3 14 2
v -3 14 -0
v -3 15 2
v -3 15 -0
v 1 0 1
v 1 0 -1
v 1 5 -1
v 1 5 -2
v 1 6 -1
v 1 6 -2
v 1 9 1
v 1 9 -1
v 1 14 7
v 1 14 3
v 1 15 7
v 1 15 3
v 2 14 -1
v 2 14 -5
v 2 15 -1
v 2 15 -5
v 3 9 -0
v 3 9 -2
v 3 10 -0
v 3 10 -2
v 4 13 7
v 4 13 5
v 4 14 7
v 4 14 5
v 5 9 5
v 5 9 3
v 5 9 -5
v 5 9 -7
v 5 10 -0
v 5 10 -2
v 5 11 5
v 5 11 3
v 5 11 -0
v 5 11 -2
v 5 12 -5
v 5 12 -7
v 6 9 7
v 6 9 5
v 6 9 3
v 6 9 -0
v 6 9 -2
v 6 9 -5
v 6 11 5
v 6 11 3
v 6 11 -0
v 6 11 -2
v 6 12 -5
v 6 12 -7
v 6 13 7
v 6 13 5
v 6 14 5
v 6 14 3
v 6 14 -1
v 6 14 -5
v 6 15 3
v 6 15 -1
v 6 15 -5
v 6 15 -7
v -6 10 7
v -6 13 7
v -5 13 7
v -5 15 7
v -2 9 7
v -2 10 7
v 1 14 7
v 1 15 7
v 4 13 7
v 4 14 7
v 6 9 7
v 6 13 7
v -6 13 6
v -6 14 6
v -5 13 6
v -5 14 6
v -6 14 5
v -6 15 5
v -5 14 5
v -5 15 5
v 4 13 5
v 4 14 5
v 6 13 5
v 6 14 5
v -6 9 3
v -6 10 3
v -2 9 3
v -2 10 3
v 1 14 3
v 1 15 3
v 5 9 3
v 5 11 3
v 6 9 3
v 6 11 3
v 6 14 3
v 6 15 3
v -1 0 1
v -1 9 1
v 1 0 1
v 1 9 1
v -3 14 -0
v -3 15 -0
v 0 14 -0
v 0 15 -0
v 3 9 -2
v 3 10 -2
v 5 10 -2
v 5 11 -2
v 6 9 -2
v 6 11 -2
v 2 14 -5
v 2 15 -5
v 6 14 -5
v 6 15 -5
v 5 9 5
v 5 11 5
v 6 9 5
v 6 11 5
v -3 14 2
v -3 15 2
v 0 14 2
v 0 15 2
v -6 14 -0
v -6 15 -0
v -4 14 -0
v -4 15 -0
v 3 9 -0
v 3 10 -0
v 5 10 -0
v 5 11 -0
v 6 9 -0
v 6 11 -0
v -1 0 -1
v -1 9 -1
v 0 5 -1
v 0 6 -1
v 1 0 -1
v 1 5 -1
v 1 6 -1
v 1 9 -1
v 2 14 -1
v 2 15 -1
v 6 14 -1
v 6 15 -1
v 0 5 -2
v 0 6 -2
v 1 5 -2
v 1 6 -2
v 5 9 -5
v 5 12 -5
v 6 9 -5
v 6 12 -5
v -4 9 -6
v -4 12 -6
v -1 9 -6
v -1 12 -6
v -6 9 -7
v -6 14 -7
v -4 9 -7
v -4 12 -7
v -4 14 -7
v -4 15 -7
v -1 9 -7
v -1 12 -7
v 5 9 -7
v 5 12 -7
v 6 12 -7
v 6 15 -7
v -1 0 1
v 1 0 1
v -1 0 -1
v 1 0 -1
v 0 5 -1
v 1 5 -1
v 0 5 -2
v 1 5 -2
v -2 9 7
v 6 9 7
v 5 9 5
v 6 9 5
v -6 9 3
v -2 9 3
v 5 9 3
v 6 9 3
v -1 9 1
v 1 9 1
v 3 9 -0
v 6 9 -0
v -1 9 -1
v 1 9 -1
v 3 9 -2
v 6 9 -2
v 5 9 -5
v 6 9 -5
v -4 9 -6
v -1 9 -6
v -6 9 -7
v -4 9 -7
v -1 9 -7
v 5 9 -7
v -6 10 7
v -2 10 7
v -6 10 3
v -2 10 3
v 3 10 -0
v 5 10 -0
v 3 10 -2
v 5 10 -2
v 5 11 5
v 6 11 5
v 5 11 3
v 6 11 3
v 5 11 -0
v 6 11 -0
v 5 11 -2
v 6 11 -2
v 5 12 -5
v 6 12 -5
v -4 12 -6
v -1 12 -6
v -4 12 -7
v -1 12 -7
v 5 12 -7
v 6 12 -7
v 0 6 -1
v 1 6 -1
v 0 6 -2
v 1 6 -2
v -6 13 7
v -5 13 7
v 4 13 7
v 6 13 7
v -6 13 6
v -5 13 6
v 4 13 5
v 6 13 5
v 1 14 7
v 4 14 7
v -6 14 6
v -5 14 6
v -6 14 5
v -5 14 5
v 4 14 5
v 6 14 5
v 1 14 3
v 6 14 3
v -3 14 2
v 0 14 2
v -6 14 -0
v -4 14 -0
v -3 14 -0
v 0 14 -0
v 2 14 -1
v 6 14 -1
v 2 14 -5
v 6 14 -5
v -6 14 -7
v -4 14 -7
v -5 15 7
v 1 15 7
v -6 15 5
v -5 15 5
v 1 15 3
v 6 15 3
v -3 15 2
v 0 15 2
v -6 15 -0
v -4 15 -0
v -3 15 -0
v 0 15 -0
v 2 15 -1
v 6 15 -1
v 2 15 -5
v 6 15 -5
v -4 15 -7
v 6 15 -7

# faces
f 4/2/1 2/2/1 1/2/1
f 5/2/1 4/2/1 3/2/1
f 6/2/1 4/2/1 5/2/1
f 7/2/1 4/2/1 6/2/1
f 8/2/1 4/2/1 7/2/1
f 9/2/1 2/2/1 4/2/1
f 9/2/1 4/2/1 8/2/1
f 10/2/1 2/2/1 9/2/1
f 11/2/1 9/2/1 8/2/1
f 12/2/1 9/2/1 11/2/1
f 15/2/1 14/2/1 13/2/1
f 17/2/1 15/2/1 13/2/1
f 17/2/1 16/2/1 15/2/1
f 18/2/1 16/2/1 17/2/1
f 21/2/1 20/2/1 19/2/1
f 22/2/1 20/2/1 21/2/1
f 25/2/1 24/2/1 23/2/1
f 26/2/1 24/2/1 25/2/1
f 29/1/1 28/1/1 27/1/1
f 30/1/1 28/1/1 29/1/1
f 33/2/1 32/2/1 31/2/1
f 34/2/1 32/2/1 33/2/1
f 37/1/1 36/1/1 35/1/1
f 38/1/1 36/1/1 37/1/1
f 41/2/1 40/2/1 39/2/1
f 42/2/1 40/2/1 41/2/1
f 43/2/2 44/2/2 45/2/2
f 45/2/2 44/2/2 46/2/2
f 47/2/2 48/2/2 49/2/2
f 49/2/2 48/2/2 50/2/2
f 51/1/2 52/1/2 53/1/2
f 51/1/2 53/1/2 55/1/2
f 53/1/2 54/1/2 55/1/2
f 55/1/2 54/1/2 56/1/2
f 51/1/2 55/1/2 57/1/2
f 57/1/2 55/1/2 58/1/2
f 59/2/2 60/2/2 61/2/2
f 61/2/2 60/2/2 62/2/2
f 63/2/2 64/2/2 65/2/2
f 65/2/2 64/2/2 66/2/2
f 67/2/2 68/2/2 69/2/2
f 69/2/2 68/2/2 70/2/2
f 71/2/2 72/2/2 73/2/2
f 73/2/2 72/2/2 74/2/2
f 75/2/2 76/2/2 81/2/2
f 81/2/2 76/2/2 82/2/2
f 79/2/2 80/2/2 83/2/2
f 83/2/2 80/2/2 84/2/2
f 77/2/2 78/2/2 85/2/2
f 85/2/2 78/2/2 86/2/2
f 87/2/2 88/2/2 93/2/2
f 89/2/2 90/2/2 94/2/2
f 94/2/2 90/2/2 95/2/2
f 91/2/2 92/2/2 96/2/2
f 94/2/2 95/2/2 97/2/2
f 95/2/2 96/2/2 97/2/2
f 96/2/2 92/2/2 97/2/2
f 93/2/2 94/2/2 97/2/2
f 87/2/2 93/2/2 99/2/2
f 97/2/2 98/2/2 99/2/2
f 93/2/2 97/2/2 99/2/2
f 99/2/2 98/2/2 100/2/2
f 100/2/2 98/2/2 101/2/2
f 101/2/2 98/2/2 102/2/2
f 102/2/2 98/2/2 103/2/2
f 103/2/2 98/2/2 104/2/2
f 102/2/2 103/2/2 105/2/2
f 105/2/2 103/2/2 106/2/2
f 104/2/2 98/2/2 107/2/2
f 107/2/2 98/2/2 108/2/2
f 111/2/3 110/2/3 109/2/3
f 114/2/3 111/2/3 109/2/3
f 114/2/3 112/2/3 111/2/3
f 115/2/3 112/2/3 114/2/3
f 115/2/3 114/2/3 113/2/3
f 116/2/3 112/2/3 115/2/3
f 117/2/3 115/2/3 113/2/3
f 118/2/3 115/2/3 117/2/3
f 119/2/3 117/2/3 113/2/3
f 120/2/3 117/2/3 119/2/3
f 123/2/3 122/2/3 121/2/3
f 124/2/3 122/2/3 123/2/3
f 127/2/3 126/2/3 125/2/3
f 128/2/3 126/2/3 127/2/3
f 131/2/3 130/2/3 129/2/3
f 132/2/3 130/2/3 131/2/3
f 135/2/3 134/2/3 133/2/3
f 136/2/3 134/2/3 135/2/3
f 141/2/3 140/2/3 139/2/3
f 142/2/3 140/2/3 141/2/3
f 143/2/3 138/2/3 137/2/3
f 144/2/3 138/2/3 143/2/3
f 147/1/3 146/1/3 145/1/3
f 148/1/3 146/1/3 147/1/3
f 151/2/3 150/2/3 149/2/3
f 152/2/3 150/2/3 151/2/3
f 155/2/3 154/2/3 153/2/3
f 157/2/3 155/2/3 153/2/3
f 157/2/3 156/2/3 155/2/3
f 158/2/3 156/2/3 157/2/3
f 161/2/3 160/2/3 159/2/3
f 162/2/3 160/2/3 161/2/3
f 163/2/4 164/2/4 165/2/4
f 165/2/4 164/2/4 166/2/4
f 167/2/4 168/2/4 169/2/4
f 169/2/4 168/2/4 170/2/4
f 171/2/4 172/2/4 173/2/4
f 173/2/4 172/2/4 174/2/4
f 175/2/4 176/2/4 177/2/4
f 175/2/4 177/2/4 179/2/4
f 177/2/4 178/2/4 179/2/4
f 179/2/4 178/2/4 180/2/4
f 181/1/4 182/1/4 183/1/4
f 183/1/4 182/1/4 184/1/4
f 181/1/4 183/1/4 185/1/4
f 185/1/4 183/1/4 186/1/4
f 184/1/4 182/1/4 187/1/4
f 187/1/4 182/1/4 188/1/4
f 189/2/4 190/2/4 191/2/4
f 191/2/4 190/2/4 192/2/4
f 193/1/4 194/1/4 195/1/4
f 195/1/4 194/1/4 196/1/4
f 197/2/4 198/2/4 199/2/4
f 199/2/4 198/2/4 200/2/4
f 201/2/4 202/2/4 203/2/4
f 203/2/4 202/2/4 204/2/4
f 205/2/4 206/2/4 207/2/4
f 207/2/4 206/2/4 208/2/4
f 208/2/4 206/2/4 209/2/4
f 209/2/4 210/2/4 212/2/4
f 208/2/4 209/2/4 212/2/4
f 211/2/4 212/2/4 213/2/4
f 212/2/4 210/2/4 214/2/4
f 213/2/4 212/2/4 214/2/4
f 214/2/4 210/2/4 215/2/4
f 215/2/4 210/2/4 216/2/4
f 219/1/5 218/1/5 217/1/5
f 220/1/5 218/1/5 219/1/5
f 223/1/5 222/1/5 221/1/5
f 224/1/5 222/1/5 223/1/5
f 227/2/5 226/2/5 225/2/5
f 228/2/5 226/2/5 227/2/5
f 230/2/5 227/2/5 225/2/5
f 231/2/5 227/2/5 230/2/5
f 233/2/5 230/2/5 229/2/5
f 233/2/5 232/2/5 231/2/5
f 233/2/5 231/2/5 230/2/5
f 234/2/5 232/2/5 233/2/5
f 235/2/5 232/2/5 234/2/5
f 236/2/5 232/2/5 235/2/5
f 237/2/5 233/2/5 229/2/5
f 238/2/5 235/2/5 234/2/5
f 239/2/5 235/2/5 238/2/5
f 239/2/5 238/2/5 237/2/5
f 241/2/5 240/2/5 239/2/5
f 242/2/5 240/2/5 241/2/5
f 243/2/5 237/2/5 229/2/5
f 243/2/5 239/2/5 237/2/5
f 243/2/5 241/2/5 239/2/5
f 244/2/5 241/2/5 243/2/5
f 245/2/5 243/2/5 229/2/5
f 246/2/5 243/2/5 245/2/5
f 247/2/5 241/2/5 244/2/5
f 248/2/5 241/2/5 247/2/5
f 251/2/5 250/2/5 249/2/5
f 252/2/5 250/2/5 251/2/5
f 255/2/5 254/2/5 253/2/5
f 256/2/5 254/2/5 255/2/5
f 259/2/5 258/2/5 257/2/5
f 260/2/5 258/2/5 259/2/5
f 263/2/5 262/2/5 261/2/5
f 264/2/5 262/2/5 263/2/5
f 269/2/5 268/2/5 267/2/5
f 270/2/5 268/2/5 269/2/5
f 271/2/5 266/2/5 265/2/5
f 272/2/5 266/2/5 271/2/5
f 273/1/6 274/1/6 275/1/6
f 275/1/6 274/1/6 276/1/6
f 277/2/6 278/2/6 281/2/6
f 281/2/6 278/2/6 282/2/6
f 279/2/6 280/2/6 283/2/6
f 283/2/6 280/2/6 284/2/6
f 287/2/6 288/2/6 289/2/6
f 289/2/6 288/2/6 290/2/6
f 285/2/6 286/2/6 291/2/6
f 291/2/6 292/2/6 293/2/6
f 285/2/6 291/2/6 293/2/6
f 293/2/6 292/2/6 294/2/6
f 295/2/6 296/2/6 299/2/6
f 299/2/6 296/2/6 300/2/6
f 301/2/6 302/2/6 303/2/6
f 303/2/6 302/2/6 304/2/6
f 297/2/6 298/2/6 305/2/6
f 305/2/6 298/2/6 306/2/6
f 307/2/6 308/2/6 310/2/6
f 310/2/6 308/2/6 311/2/6
f 309/2/6 310/2/6 311/2/6
f 309/2/6 311/2/6 313/2/6
f 311/2/6 312/2/6 313/2/6
f 313/2/6 312/2/6 314/2/6
f 309/2/6 313/2/6 315/2/6
f 315/2/6 313/2/6 316/2/6
f 316/2/6 313/2/6 317/2/6
f 314/2/6 312/2/6 318/2/6
f 316/2/6 317/2/6 319/2/6
f 317/2/6 318/2/6 319/2/6
f 318/2/6 312/2/6 319/2/6
f 319/2/6 312/2/6 320/2/6
f 316/2/6 319/2/6 321/2/6
f 316/2/6 321/2/6 323/2/6
f 321/2/6 322/2/6 323/2/6
f 323/2/6 322/2/6 324/2/6
