# MagicaVoxel @ ephtracy

# material
mtllib YellowRedFlower.mtl
usemtl palette

# normals
vn -1 0 0
vn 1 0 0
vn 0 0 1
vn 0 0 -1
vn 0 -1 0
vn 0 1 0

# texcoords
vt 0.0214844 0.5
vt 0.123047 0.5
vt 0.822266 0.5
vt 0.845703 0.5
vt 0.873047 0.5
vt 0.892578 0.5

# verts
v -5 13 3
v -5 13 -3
v -5 15 3
v -5 15 -3
v -4 7 1
v -4 7 -0
v -4 10 1
v -4 10 -0
v -4 12 4
v -4 12 -4
v -4 13 3
v -4 13 -3
v -4 15 4
v -4 15 3
v -4 15 -3
v -4 15 -4
v -4 16 3
v -4 16 -3
v -3 6 1
v -3 6 -0
v -3 7 1
v -3 7 -0
v -3 13 5
v -3 13 4
v -3 13 -4
v -3 13 -5
v -3 15 5
v -3 15 4
v -3 15 3
v -3 15 -3
v -3 15 -4
v -3 15 -5
v -3 16 4
v -3 16 3
v -3 16 -3
v -3 16 -4
v -3 17 3
v -3 17 -3
v -1 0 1
v -1 0 -1
v -1 2 3
v -1 2 1
v -1 3 4
v -1 3 3
v -1 4 5
v -1 4 4
v -1 4 2
v -1 4 1
v -1 5 3
v -1 5 2
v -1 6 5
v -1 6 3
v -1 6 1
v -1 6 -0
v -1 8 -1
v -1 8 -2
v -1 9 1
v -1 9 -0
v -1 9 -2
v -1 9 -3
v -1 11 -1
v -1 11 -3
v -1 12 1
v -1 12 -1
v 2 6 -0
v 2 6 -1
v 2 7 -0
v 2 7 -1
v -2 9 1
v -2 9 -0
v -2 10 1
v -2 10 -0
v 0 2 3
v 0 2 1
v 0 3 4
v 0 3 3
v 0 4 5
v 0 4 4
v 0 4 2
v 0 4 1
v 0 5 3
v 0 5 2
v 0 6 5
v 0 6 3
v 0 8 -1
v 0 8 -2
v 0 9 -2
v 0 9 -3
v 0 11 -1
v 0 11 -3
v 1 0 1
v 1 0 -1
v 1 3 -0
v 1 3 -1
v 1 6 -0
v 1 6 -1
v 1 9 -0
v 1 9 -1
v 1 11 -0
v 1 11 -1
v 1 12 1
v 1 12 -1
v 3 10 -0
v 3 10 -1
v 3 11 -0
v 3 11 -1
v 3 13 5
v 3 13 4
v 3 13 -4
v 3 13 -5
v 3 15 5
v 3 15 4
v 3 15 3
v 3 15 -3
v 3 15 -4
v 3 15 -5
v 3 16 4
v 3 16 3
v 3 16 -3
v 3 16 -4
v 3 17 3
v 3 17 -3
v 4 3 -0
v 4 3 -1
v 4 4 -0
v 4 4 -1
v 4 9 -0
v 4 9 -1
v 4 10 -0
v 4 10 -1
v 4 12 4
v 4 12 -4
v 4 13 3
v 4 13 -3
v 4 15 4
v 4 15 3
v 4 15 -3
v 4 15 -4
v 4 16 3
v 4 16 -3
v 5 4 -0
v 5 4 -1
v 5 7 -0
v 5 7 -1
v 5 13 3
v 5 13 -3
v 5 15 3
v 5 15 -3
v -3 13 5
v -3 15 5
v -1 4 5
v -1 6 5
v 0 4 5
v 0 6 5
v 3 13 5
v 3 15 5
v -4 12 4
v -4 15 4
v -3 13 4
v -3 15 4
v -3 16 4
v -1 3 4
v -1 4 4
v 0 3 4
v 0 4 4
v 3 13 4
v 3 15 4
v 3 16 4
v 4 12 4
v 4 15 4
v -5 13 3
v -5 15 3
v -4 13 3
v -4 15 3
v -4 16 3
v -3 15 3
v -3 16 3
v -3 17 3
v -1 2 3
v -1 3 3
v 0 2 3
v 0 3 3
v 3 15 3
v 3 16 3
v 3 17 3
v 4 13 3
v 4 15 3
v 4 16 3
v 5 13 3
v 5 15 3
v -4 7 1
v -4 10 1
v -3 6 1
v -3 7 1
v -2 9 1
v -2 10 1
v -1 0 1
v -1 2 1
v -1 4 1
v -1 6 1
v -1 9 1
v -1 12 1
v 0 2 1
v 0 4 1
v 1 0 1
v 1 12 1
v 1 3 -0
v 1 6 -0
v 1 9 -0
v 1 11 -0
v 2 6 -0
v 2 7 -0
v 3 10 -0
v 3 11 -0
v 4 3 -0
v 4 4 -0
v 4 9 -0
v 4 10 -0
v 5 4 -0
v 5 7 -0
v -1 5 3
v -1 6 3
v 0 5 3
v 0 6 3
v -1 4 2
v -1 5 2
v 0 4 2
v 0 5 2
v -4 7 -0
v -4 10 -0
v -3 6 -0
v -3 7 -0
v -2 9 -0
v -2 10 -0
v -1 6 -0
v -1 9 -0
v -1 0 -1
v -1 8 -1
v -1 11 -1
v -1 12 -1
v 0 8 -1
v 0 11 -1
v 1 0 -1
v 1 3 -1
v 1 6 -1
v 1 9 -1
v 1 11 -1
v 1 12 -1
v 2 6 -1
v 2 7 -1
v 3 10 -1
v 3 11 -1
v 4 3 -1
v 4 4 -1
v 4 9 -1
v 4 10 -1
v 5 4 -1
v 5 7 -1
v -1 8 -2
v -1 9 -2
v 0 8 -2
v 0 9 -2
v -5 13 -3
v -5 15 -3
v -4 13 -3
v -4 15 -3
v -4 16 -3
v -3 15 -3
v -3 16 -3
v -3 17 -3
v -1 9 -3
v -1 11 -3
v 0 9 -3
v 0 11 -3
v 3 15 -3
v 3 16 -3
v 3 17 -3
v 4 13 -3
v 4 15 -3
v 4 16 -3
v 5 13 -3
v 5 15 -3
v -4 12 -4
v -4 15 -4
v -3 13 -4
v -3 15 -4
v -3 16 -4
v 3 13 -4
v 3 15 -4
v 3 16 -4
v 4 12 -4
v 4 15 -4
v -3 13 -5
v -3 15 -5
v 3 13 -5
v 3 15 -5
v -1 0 1
v 1 0 1
v -1 0 -1
v 1 0 -1
v -1 2 3
v 0 2 3
v -1 2 1
v 0 2 1
v -1 3 4
v 0 3 4
v -1 3 3
v 0 3 3
v 1 3 -0
v 4 3 -0
v 1 3 -1
v 4 3 -1
v -1 4 5
v 0 4 5
v -1 4 4
v 0 4 4
v 4 4 -0
v 5 4 -0
v 4 4 -1
v 5 4 -1
v -3 6 1
v -1 6 1
v -3 6 -0
v -1 6 -0
v -4 7 1
v -3 7 1
v -4 7 -0
v -3 7 -0
v -1 8 -1
v 0 8 -1
v -1 8 -2
v 0 8 -2
v 1 9 -0
v 4 9 -0
v 1 9 -1
v 4 9 -1
v -1 9 -2
v 0 9 -2
v -1 9 -3
v 0 9 -3
v -4 12 4
v 4 12 4
v -2 12 2
v 2 12 2
v -1 12 1
v 1 12 1
v -1 12 -1
v 1 12 -1
v -2 12 -2
v 2 12 -2
v -4 12 -4
v 4 12 -4
v -3 13 5
v 3 13 5
v -3 13 4
v 3 13 4
v -5 13 3
v -4 13 3
v 4 13 3
v 5 13 3
v -5 13 -3
v -4 13 -3
v 4 13 -3
v 5 13 -3
v -3 13 -4
v 3 13 -4
v -3 13 -5
v 3 13 -5
v -1 4 2
v 0 4 2
v -1 4 1
v 0 4 1
v -1 5 3
v 0 5 3
v -1 5 2
v 0 5 2
v -1 6 5
v 0 6 5
v -1 6 3
v 0 6 3
v 1 6 -0
v 2 6 -0
v 1 6 -1
v 2 6 -1
v 2 7 -0
v 5 7 -0
v 2 7 -1
v 5 7 -1
v -2 9 1
v -1 9 1
v -2 9 -0
v -1 9 -0
v -4 10 1
v -2 10 1
v -4 10 -0
v -2 10 -0
v 3 10 -0
v 4 10 -0
v 3 10 -1
v 4 10 -1
v 1 11 -0
v 3 11 -0
v -1 11 -1
v 0 11 -1
v 1 11 -1
v 3 11 -1
v -1 11 -3
v 0 11 -3
v -3 15 5
v 3 15 5
v -4 15 4
v -3 15 4
v 3 15 4
v 4 15 4
v -5 15 3
v -4 15 3
v -3 15 3
v 3 15 3
v 4 15 3
v 5 15 3
v -5 15 -3
v -4 15 -3
v -3 15 -3
v 3 15 -3
v 4 15 -3
v 5 15 -3
v -4 15 -4
v -3 15 -4
v 3 15 -4
v 4 15 -4
v -3 15 -5
v 3 15 -5
v -3 16 4
v 3 16 4
v -4 16 3
v -3 16 3
v 3 16 3
v 4 16 3
v -4 16 -3
v -3 16 -3
v 3 16 -3
v 4 16 -3
v -3 16 -4
v 3 16 -4
v -3 17 3
v 3 17 3
v -2 17 2
v 2 17 2
v -2 17 -2
v 2 17 -2
v -3 17 -3
v 3 17 -3

# faces
f 3/1/1 2/1/1 1/1/1
f 4/1/1 2/1/1 3/1/1
f 7/6/1 6/6/1 5/6/1
f 8/6/1 6/6/1 7/6/1
f 11/1/1 10/1/1 9/1/1
f 12/1/1 10/1/1 11/1/1
f 13/1/1 11/1/1 9/1/1
f 14/1/1 11/1/1 13/1/1
f 15/1/1 10/1/1 12/1/1
f 16/1/1 10/1/1 15/1/1
f 17/4/1 15/4/1 14/4/1
f 18/4/1 15/4/1 17/4/1
f 21/6/1 20/6/1 19/6/1
f 22/6/1 20/6/1 21/6/1
f 27/1/1 24/1/1 23/1/1
f 28/1/1 24/1/1 27/1/1
f 31/1/1 26/1/1 25/1/1
f 32/1/1 26/1/1 31/1/1
f 33/4/1 29/4/1 28/4/1
f 34/4/1 29/4/1 33/4/1
f 35/4/1 31/4/1 30/4/1
f 36/4/1 31/4/1 35/4/1
f 37/1/1 35/1/1 34/1/1
f 38/1/1 35/1/1 37/1/1
f 42/5/1 40/5/1 39/5/1
f 44/6/1 42/6/1 41/6/1
f 46/6/1 44/6/1 43/6/1
f 47/6/1 42/6/1 44/6/1
f 47/6/1 44/6/1 46/6/1
f 48/5/1 40/5/1 42/5/1
f 48/6/1 42/6/1 47/6/1
f 49/6/1 47/6/1 46/6/1
f 49/6/1 46/6/1 45/6/1
f 50/6/1 47/6/1 49/6/1
f 51/6/1 49/6/1 45/6/1
f 52/6/1 49/6/1 51/6/1
f 53/5/1 40/5/1 48/5/1
f 54/5/1 40/5/1 53/5/1
f 55/5/1 40/5/1 54/5/1
f 58/5/1 55/5/1 54/5/1
f 59/6/1 56/6/1 55/6/1
f 61/5/1 58/5/1 57/5/1
f 61/6/1 60/6/1 59/6/1
f 61/6/1 59/6/1 55/6/1
f 61/5/1 55/5/1 58/5/1
f 62/6/1 60/6/1 61/6/1
f 63/5/1 61/5/1 57/5/1
f 64/5/1 61/5/1 63/5/1
f 67/6/1 66/6/1 65/6/1
f 68/6/1 66/6/1 67/6/1
f 69/6/2 70/6/2 71/6/2
f 71/6/2 70/6/2 72/6/2
f 73/6/2 74/6/2 76/6/2
f 75/6/2 76/6/2 78/6/2
f 76/6/2 74/6/2 79/6/2
f 78/6/2 76/6/2 79/6/2
f 79/6/2 74/6/2 80/6/2
f 77/6/2 78/6/2 81/6/2
f 78/6/2 79/6/2 81/6/2
f 81/6/2 79/6/2 82/6/2
f 77/6/2 81/6/2 83/6/2
f 83/6/2 81/6/2 84/6/2
f 85/6/2 86/6/2 87/6/2
f 85/6/2 87/6/2 89/6/2
f 87/6/2 88/6/2 89/6/2
f 89/6/2 88/6/2 90/6/2
f 91/5/2 92/5/2 93/5/2
f 93/5/2 92/5/2 94/5/2
f 91/5/2 93/5/2 95/5/2
f 91/5/2 95/5/2 97/5/2
f 95/5/2 96/5/2 97/5/2
f 97/5/2 96/5/2 98/5/2
f 91/5/2 97/5/2 99/5/2
f 91/5/2 99/5/2 101/5/2
f 99/5/2 100/5/2 101/5/2
f 101/5/2 100/5/2 102/5/2
f 103/6/2 104/6/2 105/6/2
f 105/6/2 104/6/2 106/6/2
f 107/1/2 108/1/2 111/1/2
f 111/1/2 108/1/2 112/1/2
f 109/1/2 110/1/2 115/1/2
f 115/1/2 110/1/2 116/1/2
f 112/4/2 113/4/2 117/4/2
f 117/4/2 113/4/2 118/4/2
f 114/4/2 115/4/2 119/4/2
f 119/4/2 115/4/2 120/4/2
f 118/1/2 119/1/2 121/1/2
f 121/1/2 119/1/2 122/1/2
f 123/6/2 124/6/2 125/6/2
f 125/6/2 124/6/2 126/6/2
f 127/6/2 128/6/2 129/6/2
f 129/6/2 128/6/2 130/6/2
f 131/1/2 132/1/2 133/1/2
f 133/1/2 132/1/2 134/1/2
f 131/1/2 133/1/2 135/1/2
f 135/1/2 133/1/2 136/1/2
f 134/1/2 132/1/2 137/1/2
f 137/1/2 132/1/2 138/1/2
f 136/4/2 137/4/2 139/4/2
f 139/4/2 137/4/2 140/4/2
f 141/6/2 142/6/2 143/6/2
f 143/6/2 142/6/2 144/6/2
f 145/1/2 146/1/2 147/1/2
f 147/1/2 146/1/2 148/1/2
f 153/6/3 152/6/3 151/6/3
f 154/6/3 152/6/3 153/6/3
f 155/1/3 150/1/3 149/1/3
f 156/1/3 150/1/3 155/1/3
f 159/1/3 158/1/3 157/1/3
f 160/1/3 158/1/3 159/1/3
f 164/6/3 163/6/3 162/6/3
f 165/6/3 163/6/3 164/6/3
f 166/1/3 159/1/3 157/1/3
f 167/4/3 161/4/3 160/4/3
f 168/4/3 161/4/3 167/4/3
f 169/1/3 166/1/3 157/1/3
f 169/1/3 167/1/3 166/1/3
f 170/1/3 167/1/3 169/1/3
f 173/1/3 172/1/3 171/1/3
f 174/1/3 172/1/3 173/1/3
f 176/4/3 175/4/3 174/4/3
f 177/4/3 175/4/3 176/4/3
f 181/6/3 180/6/3 179/6/3
f 182/6/3 180/6/3 181/6/3
f 184/1/3 178/1/3 177/1/3
f 185/1/3 178/1/3 184/1/3
f 187/4/3 184/4/3 183/4/3
f 188/4/3 184/4/3 187/4/3
f 189/1/3 187/1/3 186/1/3
f 190/1/3 187/1/3 189/1/3
f 194/6/3 192/6/3 191/6/3
f 195/6/3 192/6/3 194/6/3
f 195/6/3 194/6/3 193/6/3
f 196/6/3 192/6/3 195/6/3
f 200/6/3 195/6/3 193/6/3
f 201/6/3 195/6/3 200/6/3
f 203/5/3 198/5/3 197/5/3
f 204/5/3 202/5/3 201/5/3
f 204/5/3 201/5/3 200/5/3
f 204/5/3 200/5/3 199/5/3
f 205/5/3 203/5/3 197/5/3
f 205/5/3 204/5/3 203/5/3
f 206/5/3 202/5/3 204/5/3
f 206/5/3 204/5/3 205/5/3
f 211/6/3 208/6/3 207/6/3
f 213/6/3 210/6/3 209/6/3
f 214/6/3 210/6/3 213/6/3
f 215/6/3 212/6/3 211/6/3
f 215/6/3 211/6/3 207/6/3
f 216/6/3 212/6/3 215/6/3
f 217/6/3 213/6/3 209/6/3
f 218/6/3 213/6/3 217/6/3
f 219/6/3 212/6/3 216/6/3
f 220/6/3 212/6/3 219/6/3
f 221/6/4 222/6/4 223/6/4
f 223/6/4 222/6/4 224/6/4
f 225/6/4 226/6/4 227/6/4
f 227/6/4 226/6/4 228/6/4
f 229/6/4 230/6/4 232/6/4
f 232/6/4 230/6/4 233/6/4
f 231/6/4 232/6/4 233/6/4
f 233/6/4 230/6/4 234/6/4
f 231/6/4 233/6/4 235/6/4
f 235/6/4 233/6/4 236/6/4
f 237/5/4 238/5/4 241/5/4
f 239/5/4 240/5/4 242/5/4
f 237/5/4 241/5/4 243/5/4
f 241/5/4 242/5/4 243/5/4
f 243/5/4 242/5/4 244/5/4
f 244/5/4 242/5/4 245/5/4
f 245/5/4 242/5/4 246/5/4
f 242/5/4 240/5/4 247/5/4
f 246/5/4 242/5/4 247/5/4
f 247/5/4 240/5/4 248/5/4
f 244/6/4 245/6/4 249/6/4
f 246/6/4 247/6/4 251/6/4
f 251/6/4 247/6/4 252/6/4
f 249/6/4 250/6/4 253/6/4
f 244/6/4 249/6/4 253/6/4
f 253/6/4 250/6/4 254/6/4
f 246/6/4 251/6/4 255/6/4
f 255/6/4 251/6/4 256/6/4
f 254/6/4 250/6/4 257/6/4
f 257/6/4 250/6/4 258/6/4
f 259/6/4 260/6/4 261/6/4
f 261/6/4 260/6/4 262/6/4
f 263/1/4 264/1/4 265/1/4
f 265/1/4 264/1/4 266/1/4
f 266/4/4 267/4/4 268/4/4
f 268/4/4 267/4/4 269/4/4
f 271/6/4 272/6/4 273/6/4
f 273/6/4 272/6/4 274/6/4
f 269/1/4 270/1/4 276/1/4
f 276/1/4 270/1/4 277/1/4
f 275/4/4 276/4/4 279/4/4
f 279/4/4 276/4/4 280/4/4
f 278/1/4 279/1/4 281/1/4
f 281/1/4 279/1/4 282/1/4
f 283/1/4 284/1/4 285/1/4
f 285/1/4 284/1/4 286/1/4
f 283/1/4 285/1/4 288/1/4
f 286/4/4 287/4/4 289/4/4
f 289/4/4 287/4/4 290/4/4
f 283/1/4 288/1/4 291/1/4
f 288/1/4 289/1/4 291/1/4
f 291/1/4 289/1/4 292/1/4
f 293/1/4 294/1/4 295/1/4
f 295/1/4 294/1/4 296/1/4
f 299/5/5 298/5/5 297/5/5
f 300/5/5 298/5/5 299/5/5
f 303/6/5 302/6/5 301/6/5
f 304/6/5 302/6/5 303/6/5
f 307/6/5 306/6/5 305/6/5
f 308/6/5 306/6/5 307/6/5
f 311/6/5 310/6/5 309/6/5
f 312/6/5 310/6/5 311/6/5
f 315/6/5 314/6/5 313/6/5
f 316/6/5 314/6/5 315/6/5
f 319/6/5 318/6/5 317/6/5
f 320/6/5 318/6/5 319/6/5
f 323/6/5 322/6/5 321/6/5
f 324/6/5 322/6/5 323/6/5
f 327/6/5 326/6/5 325/6/5
f 328/6/5 326/6/5 327/6/5
f 331/6/5 330/6/5 329/6/5
f 332/6/5 330/6/5 331/6/5
f 335/6/5 334/6/5 333/6/5
f 336/6/5 334/6/5 335/6/5
f 339/6/5 338/6/5 337/6/5
f 340/6/5 338/6/5 339/6/5
f 343/1/5 342/1/5 341/1/5
f 344/1/5 342/1/5 343/1/5
f 345/2/5 344/2/5 343/2/5
f 346/2/5 344/2/5 345/2/5
f 347/2/5 345/2/5 343/2/5
f 348/2/5 344/2/5 346/2/5
f 349/1/5 343/1/5 341/1/5
f 349/2/5 348/2/5 347/2/5
f 349/2/5 347/2/5 343/2/5
f 350/2/5 344/2/5 348/2/5
f 350/2/5 348/2/5 349/2/5
f 350/1/5 342/1/5 344/1/5
f 351/1/5 349/1/5 341/1/5
f 351/1/5 350/1/5 349/1/5
f 352/1/5 342/1/5 350/1/5
f 352/1/5 350/1/5 351/1/5
f 355/1/5 354/1/5 353/1/5
f 356/1/5 354/1/5 355/1/5
f 361/1/5 358/1/5 357/1/5
f 362/1/5 358/1/5 361/1/5
f 363/1/5 360/1/5 359/1/5
f 364/1/5 360/1/5 363/1/5
f 367/1/5 366/1/5 365/1/5
f 368/1/5 366/1/5 367/1/5
f 369/6/6 370/6/6 371/6/6
f 371/6/6 370/6/6 372/6/6
f 373/6/6 374/6/6 375/6/6
f 375/6/6 374/6/6 376/6/6
f 377/6/6 378/6/6 379/6/6
f 379/6/6 378/6/6 380/6/6
f 381/6/6 382/6/6 383/6/6
f 383/6/6 382/6/6 384/6/6
f 385/6/6 386/6/6 387/6/6
f 387/6/6 386/6/6 388/6/6
f 389/6/6 390/6/6 391/6/6
f 391/6/6 390/6/6 392/6/6
f 393/6/6 394/6/6 395/6/6
f 395/6/6 394/6/6 396/6/6
f 397/6/6 398/6/6 399/6/6
f 399/6/6 398/6/6 400/6/6
f 401/6/6 402/6/6 405/6/6
f 405/6/6 402/6/6 406/6/6
f 403/6/6 404/6/6 407/6/6
f 407/6/6 404/6/6 408/6/6
f 409/1/6 410/1/6 412/1/6
f 412/1/6 410/1/6 413/1/6
f 411/1/6 412/1/6 416/1/6
f 416/1/6 412/1/6 417/1/6
f 413/1/6 414/1/6 418/1/6
f 418/1/6 414/1/6 419/1/6
f 415/1/6 416/1/6 421/1/6
f 421/1/6 416/1/6 422/1/6
f 419/1/6 420/1/6 425/1/6
f 425/1/6 420/1/6 426/1/6
f 422/1/6 423/1/6 427/1/6
f 427/1/6 423/1/6 428/1/6
f 424/1/6 425/1/6 429/1/6
f 429/1/6 425/1/6 430/1/6
f 428/1/6 429/1/6 431/1/6
f 431/1/6 429/1/6 432/1/6
f 433/4/6 434/4/6 436/4/6
f 436/4/6 434/4/6 437/4/6
f 435/4/6 436/4/6 439/4/6
f 439/4/6 436/4/6 440/4/6
f 437/4/6 438/4/6 441/4/6
f 441/4/6 438/4/6 442/4/6
f 440/4/6 441/4/6 443/4/6
f 443/4/6 441/4/6 444/4/6
f 445/1/6 446/1/6 447/1/6
f 447/1/6 446/1/6 448/1/6
f 445/1/6 447/1/6 449/1/6
f 447/2/6 448/2/6 449/2/6
f 448/1/6 446/1/6 450/1/6
f 449/2/6 448/2/6 450/2/6
f 445/1/6 449/1/6 451/1/6
f 449/1/6 450/1/6 451/1/6
f 450/1/6 446/1/6 452/1/6
f 451/1/6 450/1/6 452/1/6
