# MagicaVoxel @ ephtracy

# material
mtllib BulletPack.mtl
usemtl palette

# normals
vn -1 0 0
vn 1 0 0
vn 0 0 1
vn 0 0 -1
vn 0 -1 0
vn 0 1 0

# texcoords
vt 0.208984 0.5
vt 0.845703 0.5
vt 0.892578 0.5
vt 0.990234 0.5

# verts
v -6 0 6
v -6 0 -6
v -6 4 6
v -6 4 -6
v -5 4 4
v -5 4 3
v -5 4 2
v -5 4 1
v -5 4 -0
v -5 4 -1
v -5 4 -2
v -5 4 -3
v -5 4 -4
v -5 4 -5
v -5 5 4
v -5 5 3
v -5 5 2
v -5 5 1
v -5 5 -0
v -5 5 -1
v -5 5 -2
v -5 5 -3
v -5 5 -4
v -5 5 -5
v 1 4 4
v 1 4 3
v 1 4 2
v 1 4 1
v 1 4 -0
v 1 4 -1
v 1 4 -2
v 1 4 -3
v 1 4 -4
v 1 4 -5
v 1 5 4
v 1 5 3
v 1 5 2
v 1 5 1
v 1 5 -0
v 1 5 -1
v 1 5 -2
v 1 5 -3
v 1 5 -4
v 1 5 -5
v -1 4 4
v -1 4 3
v -1 4 2
v -1 4 1
v -1 4 -0
v -1 4 -1
v -1 4 -2
v -1 4 -3
v -1 4 -4
v -1 4 -5
v -1 5 4
v -1 5 3
v -1 5 2
v -1 5 1
v -1 5 -0
v -1 5 -1
v -1 5 -2
v -1 5 -3
v -1 5 -4
v -1 5 -5
v 5 4 4
v 5 4 3
v 5 4 2
v 5 4 1
v 5 4 -0
v 5 4 -1
v 5 4 -2
v 5 4 -3
v 5 4 -4
v 5 4 -5
v 5 5 4
v 5 5 3
v 5 5 2
v 5 5 1
v 5 5 -0
v 5 5 -1
v 5 5 -2
v 5 5 -3
v 5 5 -4
v 5 5 -5
v 6 0 6
v 6 0 -6
v 6 4 6
v 6 4 -6
v -6 0 6
v -6 4 6
v 6 0 6
v 6 4 6
v -5 4 4
v -5 5 4
v -3 4 4
v -3 5 4
v -2 4 4
v -2 5 4
v -1 4 4
v -1 5 4
v 1 4 4
v 1 5 4
v 2 4 4
v 2 5 4
v 3 4 4
v 3 5 4
v 5 4 4
v 5 5 4
v -5 4 2
v -5 5 2
v -3 4 2
v -3 5 2
v -2 4 2
v -2 5 2
v -1 4 2
v -1 5 2
v 1 4 2
v 1 5 2
v 2 4 2
v 2 5 2
v 3 4 2
v 3 5 2
v 5 4 2
v 5 5 2
v -5 4 -0
v -5 5 -0
v -3 4 -0
v -3 5 -0
v -2 4 -0
v -2 5 -0
v -1 4 -0
v -1 5 -0
v 1 4 -0
v 1 5 -0
v 2 4 -0
v 2 5 -0
v 3 4 -0
v 3 5 -0
v 5 4 -0
v 5 5 -0
v -5 4 -2
v -5 5 -2
v -3 4 -2
v -3 5 -2
v -2 4 -2
v -2 5 -2
v -1 4 -2
v -1 5 -2
v 1 4 -2
v 1 5 -2
v 2 4 -2
v 2 5 -2
v 3 4 -2
v 3 5 -2
v 5 4 -2
v 5 5 -2
v -5 4 -4
v -5 5 -4
v -3 4 -4
v -3 5 -4
v -2 4 -4
v -2 5 -4
v -1 4 -4
v -1 5 -4
v 1 4 -4
v 1 5 -4
v 2 4 -4
v 2 5 -4
v 3 4 -4
v 3 5 -4
v 5 4 -4
v 5 5 -4
v -5 4 3
v -5 5 3
v -3 4 3
v -3 5 3
v -2 4 3
v -2 5 3
v -1 4 3
v -1 5 3
v 1 4 3
v 1 5 3
v 2 4 3
v 2 5 3
v 3 4 3
v 3 5 3
v 5 4 3
v 5 5 3
v -5 4 1
v -5 5 1
v -3 4 1
v -3 5 1
v -2 4 1
v -2 5 1
v -1 4 1
v -1 5 1
v 1 4 1
v 1 5 1
v 2 4 1
v 2 5 1
v 3 4 1
v 3 5 1
v 5 4 1
v 5 5 1
v -5 4 -1
v -5 5 -1
v -3 4 -1
v -3 5 -1
v -2 4 -1
v -2 5 -1
v -1 4 -1
v -1 5 -1
v 1 4 -1
v 1 5 -1
v 2 4 -1
v 2 5 -1
v 3 4 -1
v 3 5 -1
v 5 4 -1
v 5 5 -1
v -5 4 -3
v -5 5 -3
v -3 4 -3
v -3 5 -3
v -2 4 -3
v -2 5 -3
v -1 4 -3
v -1 5 -3
v 1 4 -3
v 1 5 -3
v 2 4 -3
v 2 5 -3
v 3 4 -3
v 3 5 -3
v 5 4 -3
v 5 5 -3
v -5 4 -5
v -5 5 -5
v -3 4 -5
v -3 5 -5
v -2 4 -5
v -2 5 -5
v -1 4 -5
v -1 5 -5
v 1 4 -5
v 1 5 -5
v 2 4 -5
v 2 5 -5
v 3 4 -5
v 3 5 -5
v 5 4 -5
v 5 5 -5
v -6 0 -6
v -6 4 -6
v 6 0 -6
v 6 4 -6
v -6 0 6
v 6 0 6
v -6 0 -6
v 6 0 -6
v -6 4 6
v 6 4 6
v -5 4 4
v -3 4 4
v -2 4 4
v -1 4 4
v 1 4 4
v 2 4 4
v 3 4 4
v 5 4 4
v -5 4 3
v -3 4 3
v -2 4 3
v -1 4 3
v 1 4 3
v 2 4 3
v 3 4 3
v 5 4 3
v -5 4 2
v -3 4 2
v -2 4 2
v -1 4 2
v 1 4 2
v 2 4 2
v 3 4 2
v 5 4 2
v -5 4 1
v -3 4 1
v -2 4 1
v -1 4 1
v 1 4 1
v 2 4 1
v 3 4 1
v 5 4 1
v -5 4 -0
v -3 4 -0
v -2 4 -0
v -1 4 -0
v 1 4 -0
v 2 4 -0
v 3 4 -0
v 5 4 -0
v -5 4 -1
v -3 4 -1
v -2 4 -1
v -1 4 -1
v 1 4 -1
v 2 4 -1
v 3 4 -1
v 5 4 -1
v -5 4 -2
v -3 4 -2
v -2 4 -2
v -1 4 -2
v 1 4 -2
v 2 4 -2
v 3 4 -2
v 5 4 -2
v -5 4 -3
v -3 4 -3
v -2 4 -3
v -1 4 -3
v 1 4 -3
v 2 4 -3
v 3 4 -3
v 5 4 -3
v -5 4 -4
v -3 4 -4
v -2 4 -4
v -1 4 -4
v 1 4 -4
v 2 4 -4
v 3 4 -4
v 5 4 -4
v -5 4 -5
v -3 4 -5
v -2 4 -5
v -1 4 -5
v 1 4 -5
v 2 4 -5
v 3 4 -5
v 5 4 -5
v -6 4 -6
v 6 4 -6
v -5 5 4
v -3 5 4
v -2 5 4
v -1 5 4
v 1 5 4
v 2 5 4
v 3 5 4
v 5 5 4
v -5 5 3
v -3 5 3
v -2 5 3
v -1 5 3
v 1 5 3
v 2 5 3
v 3 5 3
v 5 5 3
v -5 5 2
v -3 5 2
v -2 5 2
v -1 5 2
v 1 5 2
v 2 5 2
v 3 5 2
v 5 5 2
v -5 5 1
v -3 5 1
v -2 5 1
v -1 5 1
v 1 5 1
v 2 5 1
v 3 5 1
v 5 5 1
v -5 5 -0
v -3 5 -0
v -2 5 -0
v -1 5 -0
v 1 5 -0
v 2 5 -0
v 3 5 -0
v 5 5 -0
v -5 5 -1
v -3 5 -1
v -2 5 -1
v -1 5 -1
v 1 5 -1
v 2 5 -1
v 3 5 -1
v 5 5 -1
v -5 5 -2
v -3 5 -2
v -2 5 -2
v -1 5 -2
v 1 5 -2
v 2 5 -2
v 3 5 -2
v 5 5 -2
v -5 5 -3
v -3 5 -3
v -2 5 -3
v -1 5 -3
v 1 5 -3
v 2 5 -3
v 3 5 -3
v 5 5 -3
v -5 5 -4
v -3 5 -4
v -2 5 -4
v -1 5 -4
v 1 5 -4
v 2 5 -4
v 3 5 -4
v 5 5 -4
v -5 5 -5
v -3 5 -5
v -2 5 -5
v -1 5 -5
v 1 5 -5
v 2 5 -5
v 3 5 -5
v 5 5 -5

# faces
f 3/4/1 2/4/1 1/4/1
f 4/4/1 2/4/1 3/4/1
f 15/1/1 6/1/1 5/1/1
f 16/1/1 6/1/1 15/1/1
f 17/1/1 8/1/1 7/1/1
f 18/1/1 8/1/1 17/1/1
f 19/1/1 10/1/1 9/1/1
f 20/1/1 10/1/1 19/1/1
f 21/1/1 12/1/1 11/1/1
f 22/1/1 12/1/1 21/1/1
f 23/1/1 14/1/1 13/1/1
f 24/1/1 14/1/1 23/1/1
f 35/2/1 26/2/1 25/2/1
f 36/2/1 26/2/1 35/2/1
f 37/2/1 28/2/1 27/2/1
f 38/2/1 28/2/1 37/2/1
f 39/2/1 30/2/1 29/2/1
f 40/2/1 30/2/1 39/2/1
f 41/2/1 32/2/1 31/2/1
f 42/2/1 32/2/1 41/2/1
f 43/2/1 34/2/1 33/2/1
f 44/2/1 34/2/1 43/2/1
f 45/2/2 46/2/2 55/2/2
f 55/2/2 46/2/2 56/2/2
f 47/2/2 48/2/2 57/2/2
f 57/2/2 48/2/2 58/2/2
f 49/2/2 50/2/2 59/2/2
f 59/2/2 50/2/2 60/2/2
f 51/2/2 52/2/2 61/2/2
f 61/2/2 52/2/2 62/2/2
f 53/2/2 54/2/2 63/2/2
f 63/2/2 54/2/2 64/2/2
f 65/1/2 66/1/2 75/1/2
f 75/1/2 66/1/2 76/1/2
f 67/1/2 68/1/2 77/1/2
f 77/1/2 68/1/2 78/1/2
f 69/1/2 70/1/2 79/1/2
f 79/1/2 70/1/2 80/1/2
f 71/1/2 72/1/2 81/1/2
f 81/1/2 72/1/2 82/1/2
f 73/1/2 74/1/2 83/1/2
f 83/1/2 74/1/2 84/1/2
f 85/4/2 86/4/2 87/4/2
f 87/4/2 86/4/2 88/4/2
f 91/4/3 90/4/3 89/4/3
f 92/4/3 90/4/3 91/4/3
f 95/1/3 94/1/3 93/1/3
f 96/1/3 94/1/3 95/1/3
f 97/3/3 96/3/3 95/3/3
f 98/3/3 96/3/3 97/3/3
f 99/2/3 98/2/3 97/2/3
f 100/2/3 98/2/3 99/2/3
f 103/2/3 102/2/3 101/2/3
f 104/2/3 102/2/3 103/2/3
f 105/3/3 104/3/3 103/3/3
f 106/3/3 104/3/3 105/3/3
f 107/1/3 106/1/3 105/1/3
f 108/1/3 106/1/3 107/1/3
f 111/1/3 110/1/3 109/1/3
f 112/1/3 110/1/3 111/1/3
f 113/3/3 112/3/3 111/3/3
f 114/3/3 112/3/3 113/3/3
f 115/2/3 114/2/3 113/2/3
f 116/2/3 114/2/3 115/2/3
f 119/2/3 118/2/3 117/2/3
f 120/2/3 118/2/3 119/2/3
f 121/3/3 120/3/3 119/3/3
f 122/3/3 120/3/3 121/3/3
f 123/1/3 122/1/3 121/1/3
f 124/1/3 122/1/3 123/1/3
f 127/1/3 126/1/3 125/1/3
f 128/1/3 126/1/3 127/1/3
f 129/3/3 128/3/3 127/3/3
f 130/3/3 128/3/3 129/3/3
f 131/2/3 130/2/3 129/2/3
f 132/2/3 130/2/3 131/2/3
f 135/2/3 134/2/3 133/2/3
f 136/2/3 134/2/3 135/2/3
f 137/3/3 136/3/3 135/3/3
f 138/3/3 136/3/3 137/3/3
f 139/1/3 138/1/3 137/1/3
f 140/1/3 138/1/3 139/1/3
f 143/1/3 142/1/3 141/1/3
f 144/1/3 142/1/3 143/1/3
f 145/3/3 144/3/3 143/3/3
f 146/3/3 144/3/3 145/3/3
f 147/2/3 146/2/3 145/2/3
f 148/2/3 146/2/3 147/2/3
f 151/2/3 150/2/3 149/2/3
f 152/2/3 150/2/3 151/2/3
f 153/3/3 152/3/3 151/3/3
f 154/3/3 152/3/3 153/3/3
f 155/1/3 154/1/3 153/1/3
f 156/1/3 154/1/3 155/1/3
f 159/1/3 158/1/3 157/1/3
f 160/1/3 158/1/3 159/1/3
f 161/3/3 160/3/3 159/3/3
f 162/3/3 160/3/3 161/3/3
f 163/2/3 162/2/3 161/2/3
f 164/2/3 162/2/3 163/2/3
f 167/2/3 166/2/3 165/2/3
f 168/2/3 166/2/3 167/2/3
f 169/3/3 168/3/3 167/3/3
f 170/3/3 168/3/3 169/3/3
f 171/1/3 170/1/3 169/1/3
f 172/1/3 170/1/3 171/1/3
f 173/1/4 174/1/4 175/1/4
f 175/1/4 174/1/4 176/1/4
f 175/3/4 176/3/4 177/3/4
f 177/3/4 176/3/4 178/3/4
f 177/2/4 178/2/4 179/2/4
f 179/2/4 178/2/4 180/2/4
f 181/2/4 182/2/4 183/2/4
f 183/2/4 182/2/4 184/2/4
f 183/3/4 184/3/4 185/3/4
f 185/3/4 184/3/4 186/3/4
f 185/1/4 186/1/4 187/1/4
f 187/1/4 186/1/4 188/1/4
f 189/1/4 190/1/4 191/1/4
f 191/1/4 190/1/4 192/1/4
f 191/3/4 192/3/4 193/3/4
f 193/3/4 192/3/4 194/3/4
f 193/2/4 194/2/4 195/2/4
f 195/2/4 194/2/4 196/2/4
f 197/2/4 198/2/4 199/2/4
f 199/2/4 198/2/4 200/2/4
f 199/3/4 200/3/4 201/3/4
f 201/3/4 200/3/4 202/3/4
f 201/1/4 202/1/4 203/1/4
f 203/1/4 202/1/4 204/1/4
f 205/1/4 206/1/4 207/1/4
f 207/1/4 206/1/4 208/1/4
f 207/3/4 208/3/4 209/3/4
f 209/3/4 208/3/4 210/3/4
f 209/2/4 210/2/4 211/2/4
f 211/2/4 210/2/4 212/2/4
f 213/2/4 214/2/4 215/2/4
f 215/2/4 214/2/4 216/2/4
f 215/3/4 216/3/4 217/3/4
f 217/3/4 216/3/4 218/3/4
f 217/1/4 218/1/4 219/1/4
f 219/1/4 218/1/4 220/1/4
f 221/1/4 222/1/4 223/1/4
f 223/1/4 222/1/4 224/1/4
f 223/3/4 224/3/4 225/3/4
f 225/3/4 224/3/4 226/3/4
f 225/2/4 226/2/4 227/2/4
f 227/2/4 226/2/4 228/2/4
f 229/2/4 230/2/4 231/2/4
f 231/2/4 230/2/4 232/2/4
f 231/3/4 232/3/4 233/3/4
f 233/3/4 232/3/4 234/3/4
f 233/1/4 234/1/4 235/1/4
f 235/1/4 234/1/4 236/1/4
f 237/1/4 238/1/4 239/1/4
f 239/1/4 238/1/4 240/1/4
f 239/3/4 240/3/4 241/3/4
f 241/3/4 240/3/4 242/3/4
f 241/2/4 242/2/4 243/2/4
f 243/2/4 242/2/4 244/2/4
f 245/2/4 246/2/4 247/2/4
f 247/2/4 246/2/4 248/2/4
f 247/3/4 248/3/4 249/3/4
f 249/3/4 248/3/4 250/3/4
f 249/1/4 250/1/4 251/1/4
f 251/1/4 250/1/4 252/1/4
f 253/4/4 254/4/4 255/4/4
f 255/4/4 254/4/4 256/4/4
f 259/4/5 258/4/5 257/4/5
f 260/4/5 258/4/5 259/4/5
f 261/4/6 262/4/6 263/4/6
f 263/4/6 262/4/6 264/4/6
f 264/4/6 262/4/6 265/4/6
f 265/4/6 262/4/6 266/4/6
f 266/4/6 262/4/6 267/4/6
f 267/4/6 262/4/6 268/4/6
f 268/4/6 262/4/6 269/4/6
f 269/4/6 262/4/6 270/4/6
f 261/4/6 263/4/6 271/4/6
f 266/4/6 267/4/6 274/4/6
f 274/4/6 267/4/6 275/4/6
f 270/4/6 262/4/6 278/4/6
f 276/4/6 277/4/6 279/4/6
f 277/4/6 278/4/6 279/4/6
f 272/4/6 273/4/6 279/4/6
f 261/4/6 271/4/6 279/4/6
f 275/4/6 276/4/6 279/4/6
f 274/4/6 275/4/6 279/4/6
f 273/4/6 274/4/6 279/4/6
f 271/4/6 272/4/6 279/4/6
f 279/4/6 278/4/6 280/4/6
f 280/4/6 278/4/6 281/4/6
f 281/4/6 278/4/6 282/4/6
f 282/4/6 278/4/6 283/4/6
f 283/4/6 278/4/6 284/4/6
f 284/4/6 278/4/6 285/4/6
f 278/4/6 262/4/6 286/4/6
f 285/4/6 278/4/6 286/4/6
f 261/4/6 279/4/6 287/4/6
f 282/4/6 283/4/6 290/4/6
f 290/4/6 283/4/6 291/4/6
f 286/4/6 262/4/6 294/4/6
f 292/4/6 293/4/6 295/4/6
f 293/4/6 294/4/6 295/4/6
f 288/4/6 289/4/6 295/4/6
f 261/4/6 287/4/6 295/4/6
f 291/4/6 292/4/6 295/4/6
f 290/4/6 291/4/6 295/4/6
f 289/4/6 290/4/6 295/4/6
f 287/4/6 288/4/6 295/4/6
f 295/4/6 294/4/6 296/4/6
f 296/4/6 294/4/6 297/4/6
f 297/4/6 294/4/6 298/4/6
f 298/4/6 294/4/6 299/4/6
f 299/4/6 294/4/6 300/4/6
f 300/4/6 294/4/6 301/4/6
f 294/4/6 262/4/6 302/4/6
f 301/4/6 294/4/6 302/4/6
f 261/4/6 295/4/6 303/4/6
f 298/4/6 299/4/6 306/4/6
f 306/4/6 299/4/6 307/4/6
f 302/4/6 262/4/6 310/4/6
f 308/4/6 309/4/6 311/4/6
f 309/4/6 310/4/6 311/4/6
f 304/4/6 305/4/6 311/4/6
f 261/4/6 303/4/6 311/4/6
f 307/4/6 308/4/6 311/4/6
f 306/4/6 307/4/6 311/4/6
f 305/4/6 306/4/6 311/4/6
f 303/4/6 304/4/6 311/4/6
f 311/4/6 310/4/6 312/4/6
f 312/4/6 310/4/6 313/4/6
f 313/4/6 310/4/6 314/4/6
f 314/4/6 310/4/6 315/4/6
f 315/4/6 310/4/6 316/4/6
f 316/4/6 310/4/6 317/4/6
f 310/4/6 262/4/6 318/4/6
f 317/4/6 310/4/6 318/4/6
f 261/4/6 311/4/6 319/4/6
f 314/4/6 315/4/6 322/4/6
f 322/4/6 315/4/6 323/4/6
f 318/4/6 262/4/6 326/4/6
f 324/4/6 325/4/6 327/4/6
f 325/4/6 326/4/6 327/4/6
f 320/4/6 321/4/6 327/4/6
f 261/4/6 319/4/6 327/4/6
f 323/4/6 324/4/6 327/4/6
f 322/4/6 323/4/6 327/4/6
f 321/4/6 322/4/6 327/4/6
f 319/4/6 320/4/6 327/4/6
f 327/4/6 326/4/6 328/4/6
f 328/4/6 326/4/6 329/4/6
f 329/4/6 326/4/6 330/4/6
f 330/4/6 326/4/6 331/4/6
f 331/4/6 326/4/6 332/4/6
f 332/4/6 326/4/6 333/4/6
f 326/4/6 262/4/6 334/4/6
f 333/4/6 326/4/6 334/4/6
f 261/4/6 327/4/6 335/4/6
f 330/4/6 331/4/6 338/4/6
f 338/4/6 331/4/6 339/4/6
f 334/4/6 262/4/6 342/4/6
f 340/4/6 341/4/6 343/4/6
f 341/4/6 342/4/6 343/4/6
f 336/4/6 337/4/6 343/4/6
f 261/4/6 335/4/6 343/4/6
f 339/4/6 340/4/6 343/4/6
f 338/4/6 339/4/6 343/4/6
f 337/4/6 338/4/6 343/4/6
f 335/4/6 336/4/6 343/4/6
f 342/4/6 262/4/6 344/4/6
f 343/4/6 342/4/6 344/4/6
f 345/1/6 346/1/6 353/1/6
f 346/3/6 347/3/6 354/3/6
f 353/1/6 346/1/6 354/1/6
f 347/2/6 348/2/6 355/2/6
f 354/3/6 347/3/6 355/3/6
f 355/2/6 348/2/6 356/2/6
f 349/2/6 350/2/6 357/2/6
f 350/3/6 351/3/6 358/3/6
f 357/2/6 350/2/6 358/2/6
f 351/1/6 352/1/6 359/1/6
f 358/3/6 351/3/6 359/3/6
f 359/1/6 352/1/6 360/1/6
f 361/1/6 362/1/6 369/1/6
f 362/3/6 363/3/6 370/3/6
f 369/1/6 362/1/6 370/1/6
f 363/2/6 364/2/6 371/2/6
f 370/3/6 363/3/6 371/3/6
f 371/2/6 364/2/6 372/2/6
f 365/2/6 366/2/6 373/2/6
f 366/3/6 367/3/6 374/3/6
f 373/2/6 366/2/6 374/2/6
f 367/1/6 368/1/6 375/1/6
f 374/3/6 367/3/6 375/3/6
f 375/1/6 368/1/6 376/1/6
f 377/1/6 378/1/6 385/1/6
f 378/3/6 379/3/6 386/3/6
f 385/1/6 378/1/6 386/1/6
f 379/2/6 380/2/6 387/2/6
f 386/3/6 379/3/6 387/3/6
f 387/2/6 380/2/6 388/2/6
f 381/2/6 382/2/6 389/2/6
f 382/3/6 383/3/6 390/3/6
f 389/2/6 382/2/6 390/2/6
f 383/1/6 384/1/6 391/1/6
f 390/3/6 383/3/6 391/3/6
f 391/1/6 384/1/6 392/1/6
f 393/1/6 394/1/6 401/1/6
f 394/3/6 395/3/6 402/3/6
f 401/1/6 394/1/6 402/1/6
f 395/2/6 396/2/6 403/2/6
f 402/3/6 395/3/6 403/3/6
f 403/2/6 396/2/6 404/2/6
f 397/2/6 398/2/6 405/2/6
f 398/3/6 399/3/6 406/3/6
f 405/2/6 398/2/6 406/2/6
f 399/1/6 400/1/6 407/1/6
f 406/3/6 399/3/6 407/3/6
f 407/1/6 400/1/6 408/1/6
f 409/1/6 410/1/6 417/1/6
f 410/3/6 411/3/6 418/3/6
f 417/1/6 410/1/6 418/1/6
f 411/2/6 412/2/6 419/2/6
f 418/3/6 411/3/6 419/3/6
f 419/2/6 412/2/6 420/2/6
f 413/2/6 414/2/6 421/2/6
f 414/3/6 415/3/6 422/3/6
f 421/2/6 414/2/6 422/2/6
f 415/1/6 416/1/6 423/1/6
f 422/3/6 415/3/6 423/3/6
f 423/1/6 416/1/6 424/1/6
