# MagicaVoxel @ ephtracy

# material
mtllib HealthPack.mtl
usemtl palette

# normals
vn -1 0 0
vn 1 0 0
vn 0 0 1
vn 0 0 -1
vn 0 -1 0
vn 0 1 0

# texcoords
vt 0.845703 0.5
vt 0.962891 0.5

# verts
v -6 0 6
v -6 0 -6
v -6 1 5
v -6 1 -5
v -6 3 5
v -6 3 -5
v -6 4 6
v -6 4 -6
v -5 4 1
v -5 4 -1
v -5 5 1
v -5 5 -1
v -1 4 5
v -1 4 1
v -1 4 -1
v -1 4 -5
v -1 5 5
v -1 5 1
v -1 5 -1
v -1 5 -5
v 1 4 5
v 1 4 1
v 1 4 -1
v 1 4 -5
v 1 5 5
v 1 5 1
v 1 5 -1
v 1 5 -5
v 5 4 1
v 5 4 -1
v 5 5 1
v 5 5 -1
v 6 0 6
v 6 0 -6
v 6 1 5
v 6 1 -5
v 6 3 5
v 6 3 -5
v 6 4 6
v 6 4 -6
v -6 0 6
v -6 4 6
v -5 1 6
v -5 3 6
v 5 1 6
v 5 3 6
v 6 0 6
v 6 4 6
v -1 4 5
v -1 5 5
v 1 4 5
v 1 5 5
v -5 4 1
v -5 5 1
v -1 4 1
v -1 5 1
v 1 4 1
v 1 5 1
v 5 4 1
v 5 5 1
v -5 4 -1
v -5 5 -1
v -1 4 -1
v -1 5 -1
v 1 4 -1
v 1 5 -1
v 5 4 -1
v 5 5 -1
v -1 4 -5
v -1 5 -5
v 1 4 -5
v 1 5 -5
v -6 0 -6
v -6 4 -6
v -5 1 -6
v -5 3 -6
v 5 1 -6
v 5 3 -6
v 6 0 -6
v 6 4 -6
v -6 0 6
v 6 0 6
v -5 0 5
v 5 0 5
v -5 0 -5
v 5 0 -5
v -6 0 -6
v 6 0 -6
v -6 4 6
v 6 4 6
v -5 4 5
v -1 4 5
v 1 4 5
v 5 4 5
v -5 4 1
v -1 4 1
v 1 4 1
v 5 4 1
v -5 4 -1
v -1 4 -1
v 1 4 -1
v 5 4 -1
v -5 4 -5
v -1 4 -5
v 1 4 -5
v 5 4 -5
v -6 4 -6
v 6 4 -6
v -1 5 5
v 1 5 5
v -5 5 1
v -1 5 1
v 1 5 1
v 5 5 1
v -5 5 -1
v -1 5 -1
v 1 5 -1
v 5 5 -1
v -1 5 -5
v 1 5 -5

# faces
f 3/1/1 2/1/1 1/1/1
f 4/1/1 2/1/1 3/1/1
f 5/1/1 3/1/1 1/1/1
f 5/2/1 4/2/1 3/2/1
f 6/1/1 2/1/1 4/1/1
f 6/2/1 4/2/1 5/2/1
f 7/1/1 5/1/1 1/1/1
f 7/1/1 6/1/1 5/1/1
f 8/1/1 2/1/1 6/1/1
f 8/1/1 6/1/1 7/1/1
f 11/1/1 10/1/1 9/1/1
f 12/1/1 10/1/1 11/1/1
f 17/1/1 14/1/1 13/1/1
f 18/1/1 14/1/1 17/1/1
f 19/1/1 16/1/1 15/1/1
f 20/1/1 16/1/1 19/1/1
f 21/1/2 22/1/2 25/1/2
f 25/1/2 22/1/2 26/1/2
f 23/1/2 24/1/2 27/1/2
f 27/1/2 24/1/2 28/1/2
f 29/1/2 30/1/2 31/1/2
f 31/1/2 30/1/2 32/1/2
f 33/1/2 34/1/2 35/1/2
f 35/1/2 34/1/2 36/1/2
f 33/1/2 35/1/2 37/1/2
f 35/2/2 36/2/2 37/2/2
f 36/1/2 34/1/2 38/1/2
f 37/2/2 36/2/2 38/2/2
f 33/1/2 37/1/2 39/1/2
f 37/1/2 38/1/2 39/1/2
f 38/1/2 34/1/2 40/1/2
f 39/1/2 38/1/2 40/1/2
f 43/1/3 42/1/3 41/1/3
f 44/1/3 42/1/3 43/1/3
f 45/1/3 43/1/3 41/1/3
f 45/2/3 44/2/3 43/2/3
f 46/1/3 42/1/3 44/1/3
f 46/2/3 44/2/3 45/2/3
f 47/1/3 45/1/3 41/1/3
f 47/1/3 46/1/3 45/1/3
f 48/1/3 42/1/3 46/1/3
f 48/1/3 46/1/3 47/1/3
f 51/1/3 50/1/3 49/1/3
f 52/1/3 50/1/3 51/1/3
f 55/1/3 54/1/3 53/1/3
f 56/1/3 54/1/3 55/1/3
f 59/1/3 58/1/3 57/1/3
f 60/1/3 58/1/3 59/1/3
f 61/1/4 62/1/4 63/1/4
f 63/1/4 62/1/4 64/1/4
f 65/1/4 66/1/4 67/1/4
f 67/1/4 66/1/4 68/1/4
f 69/1/4 70/1/4 71/1/4
f 71/1/4 70/1/4 72/1/4
f 73/1/4 74/1/4 75/1/4
f 75/1/4 74/1/4 76/1/4
f 73/1/4 75/1/4 77/1/4
f 75/2/4 76/2/4 77/2/4
f 76/1/4 74/1/4 78/1/4
f 77/2/4 76/2/4 78/2/4
f 73/1/4 77/1/4 79/1/4
f 77/1/4 78/1/4 79/1/4
f 78/1/4 74/1/4 80/1/4
f 79/1/4 78/1/4 80/1/4
f 83/1/5 82/1/5 81/1/5
f 84/1/5 82/1/5 83/1/5
f 85/1/5 83/1/5 81/1/5
f 85/2/5 84/2/5 83/2/5
f 86/1/5 82/1/5 84/1/5
f 86/2/5 84/2/5 85/2/5
f 87/1/5 85/1/5 81/1/5
f 87/1/5 86/1/5 85/1/5
f 88/1/5 82/1/5 86/1/5
f 88/1/5 86/1/5 87/1/5
f 89/1/6 90/1/6 91/1/6
f 91/1/6 90/1/6 92/1/6
f 92/1/6 90/1/6 93/1/6
f 93/1/6 90/1/6 94/1/6
f 89/1/6 91/1/6 95/1/6
f 91/2/6 92/2/6 95/2/6
f 95/2/6 92/2/6 96/2/6
f 93/2/6 94/2/6 97/2/6
f 94/1/6 90/1/6 98/1/6
f 97/2/6 94/2/6 98/2/6
f 89/1/6 95/1/6 99/1/6
f 98/1/6 90/1/6 102/1/6
f 99/2/6 100/2/6 103/2/6
f 89/1/6 99/1/6 103/1/6
f 103/2/6 100/2/6 104/2/6
f 101/2/6 102/2/6 105/2/6
f 102/1/6 90/1/6 106/1/6
f 105/2/6 102/2/6 106/2/6
f 103/1/6 104/1/6 107/1/6
f 104/1/6 105/1/6 107/1/6
f 105/1/6 106/1/6 107/1/6
f 89/1/6 103/1/6 107/1/6
f 106/1/6 90/1/6 108/1/6
f 107/1/6 106/1/6 108/1/6
f 109/1/6 110/1/6 112/1/6
f 112/1/6 110/1/6 113/1/6
f 111/1/6 112/1/6 115/1/6
f 113/1/6 114/1/6 115/1/6
f 112/1/6 113/1/6 115/1/6
f 115/1/6 114/1/6 116/1/6
f 116/1/6 114/1/6 117/1/6
f 117/1/6 114/1/6 118/1/6
f 116/1/6 117/1/6 119/1/6
f 119/1/6 117/1/6 120/1/6
